%TF.GenerationSoftware,KiCad,Pcbnew,(6.0.4-0)*%
%TF.CreationDate,2022-05-03T23:28:53-04:00*%
%TF.ProjectId,antennaamp,616e7465-6e6e-4616-916d-702e6b696361,rev?*%
%TF.SameCoordinates,Original*%
%TF.FileFunction,Copper,L2,Bot*%
%TF.FilePolarity,Positive*%
%FSLAX46Y46*%
G04 Gerber Fmt 4.6, Leading zero omitted, Abs format (unit mm)*
G04 Created by KiCad (PCBNEW (6.0.4-0)) date 2022-05-03 23:28:53*
%MOMM*%
%LPD*%
G01*
G04 APERTURE LIST*
%TA.AperFunction,ComponentPad*%
%ADD10R,1.700000X1.700000*%
%TD*%
%TA.AperFunction,ComponentPad*%
%ADD11O,1.700000X1.700000*%
%TD*%
%TA.AperFunction,ViaPad*%
%ADD12C,0.800000*%
%TD*%
%TA.AperFunction,Conductor*%
%ADD13C,0.250000*%
%TD*%
G04 APERTURE END LIST*
D10*
%TO.P,J2,1,Pin_1*%
%TO.N,Net-(J2-Pad1)*%
X62625000Y-59125000D03*
D11*
%TO.P,J2,2,Pin_2*%
%TO.N,GND*%
X62625000Y-61665000D03*
%TO.P,J2,3,Pin_3*%
%TO.N,unconnected-(J2-Pad3)*%
X62625000Y-64205000D03*
%TO.P,J2,4,Pin_4*%
%TO.N,unconnected-(J2-Pad4)*%
X62625000Y-66745000D03*
%TD*%
D10*
%TO.P,J1,1,Pin_1*%
%TO.N,+12V*%
X91700000Y-59025000D03*
D11*
%TO.P,J1,2,Pin_2*%
%TO.N,GND*%
X91700000Y-61565000D03*
%TO.P,J1,3,Pin_3*%
%TO.N,unconnected-(J1-Pad3)*%
X91700000Y-64105000D03*
%TO.P,J1,4,Pin_4*%
%TO.N,-12V*%
X91700000Y-66645000D03*
%TD*%
D12*
%TO.N,Net-(R3-Pad1)*%
X78050000Y-56255184D03*
X77962500Y-59862500D03*
X77900000Y-64575000D03*
%TO.N,Net-(C6-Pad1)*%
X82400000Y-67375000D03*
X86600201Y-60125201D03*
%TO.N,Net-(C1-Pad2)*%
X76775000Y-57175000D03*
X70575000Y-57175000D03*
%TO.N,GND*%
X86425000Y-62625000D03*
X88300000Y-62625000D03*
%TO.N,-12V*%
X78100000Y-62725000D03*
X86650000Y-65975000D03*
%TO.N,+12V*%
X86350000Y-61400000D03*
%TD*%
D13*
%TO.N,Net-(R3-Pad1)*%
X77962500Y-59862500D02*
X77962500Y-56342684D01*
X77962500Y-56342684D02*
X78050000Y-56255184D01*
X77962500Y-59862500D02*
X77337989Y-60487011D01*
X77337989Y-60487011D02*
X77275000Y-60487011D01*
X77275000Y-60487011D02*
X77275000Y-63912989D01*
X77375489Y-64050489D02*
X77900000Y-64575000D01*
%TO.N,Net-(C6-Pad1)*%
X85075000Y-64425000D02*
X85075000Y-60450000D01*
X85075000Y-60450000D02*
X86275402Y-60450000D01*
X86275402Y-60450000D02*
X86600201Y-60125201D01*
X82400000Y-67375000D02*
X82400000Y-67575000D01*
X82400000Y-67575000D02*
X83325000Y-68500000D01*
X87925000Y-64375000D02*
X86174614Y-64375000D01*
X88800000Y-65250000D02*
X87925000Y-64375000D01*
X86174614Y-64375000D02*
X86124614Y-64425000D01*
X83325000Y-68500000D02*
X85550000Y-68500000D01*
X85550000Y-68500000D02*
X88800000Y-65250000D01*
X86124614Y-64425000D02*
X85075000Y-64425000D01*
%TO.N,Net-(C1-Pad2)*%
X76775000Y-57175000D02*
X70575000Y-57175000D01*
%TO.N,GND*%
X88300000Y-62625000D02*
X86425000Y-62625000D01*
%TO.N,-12V*%
X81350000Y-65975000D02*
X78100000Y-62725000D01*
X86650000Y-65975000D02*
X81350000Y-65975000D01*
%TO.N,+12V*%
X88725000Y-59025000D02*
X91700000Y-59025000D01*
X86350000Y-61400000D02*
X88725000Y-59025000D01*
%TD*%
%TA.AperFunction,Conductor*%
%TO.N,GND*%
G36*
X93383621Y-53903502D02*
G01*
X93430114Y-53957158D01*
X93441500Y-54009500D01*
X93441500Y-70915500D01*
X93421498Y-70983621D01*
X93367842Y-71030114D01*
X93315500Y-71041500D01*
X61059500Y-71041500D01*
X60991379Y-71021498D01*
X60944886Y-70967842D01*
X60933500Y-70915500D01*
X60933500Y-66711695D01*
X61262251Y-66711695D01*
X61262548Y-66716848D01*
X61262548Y-66716851D01*
X61268427Y-66818810D01*
X61275110Y-66934715D01*
X61276247Y-66939761D01*
X61276248Y-66939767D01*
X61279091Y-66952380D01*
X61324222Y-67152639D01*
X61408266Y-67359616D01*
X61459019Y-67442438D01*
X61513987Y-67532137D01*
X61524987Y-67550088D01*
X61671250Y-67718938D01*
X61843126Y-67861632D01*
X62036000Y-67974338D01*
X62040825Y-67976180D01*
X62040826Y-67976181D01*
X62046553Y-67978368D01*
X62244692Y-68054030D01*
X62249760Y-68055061D01*
X62249763Y-68055062D01*
X62357017Y-68076883D01*
X62463597Y-68098567D01*
X62468772Y-68098757D01*
X62468774Y-68098757D01*
X62681673Y-68106564D01*
X62681677Y-68106564D01*
X62686837Y-68106753D01*
X62691957Y-68106097D01*
X62691959Y-68106097D01*
X62903288Y-68079025D01*
X62903289Y-68079025D01*
X62908416Y-68078368D01*
X62913366Y-68076883D01*
X63117429Y-68015661D01*
X63117434Y-68015659D01*
X63122384Y-68014174D01*
X63322994Y-67915896D01*
X63504860Y-67786173D01*
X63532804Y-67758327D01*
X63659435Y-67632137D01*
X63663096Y-67628489D01*
X63667587Y-67622240D01*
X63790435Y-67451277D01*
X63793453Y-67447077D01*
X63829076Y-67375000D01*
X63890136Y-67251453D01*
X63890137Y-67251451D01*
X63892430Y-67246811D01*
X63957370Y-67033069D01*
X63986529Y-66811590D01*
X63987917Y-66754802D01*
X63988074Y-66748365D01*
X63988074Y-66748361D01*
X63988156Y-66745000D01*
X63969852Y-66522361D01*
X63915431Y-66305702D01*
X63826354Y-66100840D01*
X63742797Y-65971680D01*
X63707822Y-65917617D01*
X63707820Y-65917614D01*
X63705014Y-65913277D01*
X63554670Y-65748051D01*
X63550619Y-65744852D01*
X63550615Y-65744848D01*
X63383414Y-65612800D01*
X63383410Y-65612798D01*
X63379359Y-65609598D01*
X63338053Y-65586796D01*
X63288084Y-65536364D01*
X63273312Y-65466921D01*
X63298428Y-65400516D01*
X63325780Y-65373909D01*
X63377453Y-65337051D01*
X63504860Y-65246173D01*
X63527898Y-65223216D01*
X63620674Y-65130763D01*
X63663096Y-65088489D01*
X63667587Y-65082240D01*
X63790435Y-64911277D01*
X63793453Y-64907077D01*
X63814022Y-64865460D01*
X63890136Y-64711453D01*
X63890137Y-64711451D01*
X63892430Y-64706811D01*
X63939407Y-64552191D01*
X63955865Y-64498023D01*
X63955865Y-64498021D01*
X63957370Y-64493069D01*
X63986529Y-64271590D01*
X63988156Y-64205000D01*
X63969852Y-63982361D01*
X63915431Y-63765702D01*
X63826354Y-63560840D01*
X63742797Y-63431680D01*
X63707822Y-63377617D01*
X63707820Y-63377614D01*
X63705014Y-63373277D01*
X63554670Y-63208051D01*
X63550619Y-63204852D01*
X63550615Y-63204848D01*
X63383414Y-63072800D01*
X63383410Y-63072798D01*
X63379359Y-63069598D01*
X63337569Y-63046529D01*
X63287598Y-62996097D01*
X63272826Y-62926654D01*
X63297942Y-62860248D01*
X63325294Y-62833641D01*
X63500328Y-62708792D01*
X63508200Y-62702139D01*
X63659052Y-62551812D01*
X63665730Y-62543965D01*
X63790003Y-62371020D01*
X63795313Y-62362183D01*
X63889670Y-62171267D01*
X63893469Y-62161672D01*
X63955377Y-61957910D01*
X63957555Y-61947837D01*
X63958986Y-61936962D01*
X63956775Y-61922778D01*
X63943617Y-61919000D01*
X61308225Y-61919000D01*
X61294694Y-61922973D01*
X61293257Y-61932966D01*
X61323565Y-62067446D01*
X61326645Y-62077275D01*
X61406770Y-62274603D01*
X61411413Y-62283794D01*
X61522694Y-62465388D01*
X61528777Y-62473699D01*
X61668213Y-62634667D01*
X61675580Y-62641883D01*
X61839434Y-62777916D01*
X61847881Y-62783831D01*
X61916969Y-62824203D01*
X61965693Y-62875842D01*
X61978764Y-62945625D01*
X61952033Y-63011396D01*
X61911584Y-63044752D01*
X61898607Y-63051507D01*
X61894474Y-63054610D01*
X61894471Y-63054612D01*
X61724100Y-63182530D01*
X61719965Y-63185635D01*
X61565629Y-63347138D01*
X61439743Y-63531680D01*
X61345688Y-63734305D01*
X61285989Y-63949570D01*
X61262251Y-64171695D01*
X61262548Y-64176848D01*
X61262548Y-64176851D01*
X61272537Y-64350096D01*
X61275110Y-64394715D01*
X61276247Y-64399761D01*
X61276248Y-64399767D01*
X61290025Y-64460897D01*
X61324222Y-64612639D01*
X61408266Y-64819616D01*
X61436359Y-64865460D01*
X61513987Y-64992137D01*
X61524987Y-65010088D01*
X61671250Y-65178938D01*
X61790795Y-65278186D01*
X61836480Y-65316114D01*
X61843126Y-65321632D01*
X61864870Y-65334338D01*
X61916445Y-65364476D01*
X61965169Y-65416114D01*
X61978240Y-65485897D01*
X61951509Y-65551669D01*
X61911055Y-65585027D01*
X61898607Y-65591507D01*
X61894474Y-65594610D01*
X61894471Y-65594612D01*
X61724100Y-65722530D01*
X61719965Y-65725635D01*
X61565629Y-65887138D01*
X61439743Y-66071680D01*
X61345688Y-66274305D01*
X61285989Y-66489570D01*
X61262251Y-66711695D01*
X60933500Y-66711695D01*
X60933500Y-60023134D01*
X61266500Y-60023134D01*
X61273255Y-60085316D01*
X61324385Y-60221705D01*
X61411739Y-60338261D01*
X61528295Y-60425615D01*
X61536704Y-60428767D01*
X61536705Y-60428768D01*
X61645960Y-60469726D01*
X61702725Y-60512367D01*
X61727425Y-60578929D01*
X61712218Y-60648278D01*
X61692825Y-60674759D01*
X61569590Y-60803717D01*
X61563104Y-60811727D01*
X61443098Y-60987649D01*
X61438000Y-60996623D01*
X61348338Y-61189783D01*
X61344775Y-61199470D01*
X61289389Y-61399183D01*
X61290912Y-61407607D01*
X61303292Y-61411000D01*
X63943344Y-61411000D01*
X63956875Y-61407027D01*
X63958180Y-61397947D01*
X63916214Y-61230875D01*
X63912894Y-61221124D01*
X63827972Y-61025814D01*
X63823105Y-61016739D01*
X63707426Y-60837926D01*
X63701136Y-60829757D01*
X63557293Y-60671677D01*
X63526241Y-60607831D01*
X63534635Y-60537333D01*
X63579812Y-60482564D01*
X63606256Y-60468895D01*
X63713297Y-60428767D01*
X63721705Y-60425615D01*
X63838261Y-60338261D01*
X63925615Y-60221705D01*
X63976745Y-60085316D01*
X63983500Y-60023134D01*
X63983500Y-58226866D01*
X63976745Y-58164684D01*
X63925615Y-58028295D01*
X63838261Y-57911739D01*
X63721705Y-57824385D01*
X63585316Y-57773255D01*
X63523134Y-57766500D01*
X61726866Y-57766500D01*
X61664684Y-57773255D01*
X61528295Y-57824385D01*
X61411739Y-57911739D01*
X61324385Y-58028295D01*
X61273255Y-58164684D01*
X61266500Y-58226866D01*
X61266500Y-60023134D01*
X60933500Y-60023134D01*
X60933500Y-57175000D01*
X69661496Y-57175000D01*
X69681458Y-57364928D01*
X69740473Y-57546556D01*
X69835960Y-57711944D01*
X69840378Y-57716851D01*
X69840379Y-57716852D01*
X69934364Y-57821233D01*
X69963747Y-57853866D01*
X70118248Y-57966118D01*
X70124276Y-57968802D01*
X70124278Y-57968803D01*
X70276785Y-58036703D01*
X70292712Y-58043794D01*
X70386113Y-58063647D01*
X70473056Y-58082128D01*
X70473061Y-58082128D01*
X70479513Y-58083500D01*
X70670487Y-58083500D01*
X70676939Y-58082128D01*
X70676944Y-58082128D01*
X70763887Y-58063647D01*
X70857288Y-58043794D01*
X70873215Y-58036703D01*
X71025722Y-57968803D01*
X71025724Y-57968802D01*
X71031752Y-57966118D01*
X71186253Y-57853866D01*
X71190668Y-57848963D01*
X71195580Y-57844540D01*
X71196705Y-57845789D01*
X71250014Y-57812949D01*
X71283200Y-57808500D01*
X76066800Y-57808500D01*
X76134921Y-57828502D01*
X76154147Y-57844843D01*
X76154420Y-57844540D01*
X76159332Y-57848963D01*
X76163747Y-57853866D01*
X76318248Y-57966118D01*
X76324276Y-57968802D01*
X76324278Y-57968803D01*
X76476785Y-58036703D01*
X76492712Y-58043794D01*
X76586113Y-58063647D01*
X76673056Y-58082128D01*
X76673061Y-58082128D01*
X76679513Y-58083500D01*
X76870487Y-58083500D01*
X76876939Y-58082128D01*
X76876944Y-58082128D01*
X76963887Y-58063647D01*
X77057288Y-58043794D01*
X77063315Y-58041111D01*
X77063323Y-58041108D01*
X77151752Y-58001737D01*
X77222119Y-57992303D01*
X77286416Y-58022410D01*
X77324229Y-58082499D01*
X77329000Y-58116844D01*
X77329000Y-59159976D01*
X77308998Y-59228097D01*
X77296642Y-59244279D01*
X77223460Y-59325556D01*
X77220159Y-59331274D01*
X77131575Y-59484706D01*
X77127973Y-59490944D01*
X77068958Y-59672572D01*
X77068269Y-59679131D01*
X77068268Y-59679134D01*
X77053392Y-59820673D01*
X77026379Y-59886329D01*
X76981151Y-59919720D01*
X76981701Y-59920721D01*
X76974749Y-59924543D01*
X76967383Y-59927459D01*
X76960975Y-59932115D01*
X76960969Y-59932118D01*
X76921948Y-59960469D01*
X76915411Y-59964912D01*
X76867982Y-59995011D01*
X76862556Y-60000789D01*
X76862555Y-60000790D01*
X76862341Y-60001018D01*
X76844554Y-60016699D01*
X76844309Y-60016877D01*
X76844307Y-60016879D01*
X76837893Y-60021539D01*
X76832839Y-60027648D01*
X76832838Y-60027649D01*
X76802097Y-60064807D01*
X76796866Y-60070741D01*
X76763842Y-60105909D01*
X76763840Y-60105912D01*
X76758414Y-60111690D01*
X76754445Y-60118910D01*
X76741119Y-60138517D01*
X76740920Y-60138757D01*
X76740916Y-60138764D01*
X76735867Y-60144867D01*
X76732493Y-60152038D01*
X76711953Y-60195687D01*
X76708371Y-60202719D01*
X76681305Y-60251951D01*
X76679335Y-60259626D01*
X76679332Y-60259632D01*
X76679256Y-60259930D01*
X76671224Y-60282239D01*
X76671094Y-60282514D01*
X76671091Y-60282522D01*
X76667717Y-60289693D01*
X76657426Y-60343642D01*
X76657195Y-60344854D01*
X76655471Y-60352569D01*
X76641500Y-60406981D01*
X76641500Y-60415218D01*
X76639268Y-60438827D01*
X76637725Y-60446917D01*
X76639108Y-60468895D01*
X76641251Y-60502962D01*
X76641500Y-60510873D01*
X76641500Y-63952845D01*
X76656526Y-64071786D01*
X76715448Y-64220606D01*
X76720106Y-64227017D01*
X76720107Y-64227019D01*
X76769291Y-64294715D01*
X76809528Y-64350096D01*
X76815637Y-64355150D01*
X76817013Y-64356615D01*
X76833618Y-64378731D01*
X76842098Y-64393069D01*
X76870947Y-64441851D01*
X76952878Y-64523782D01*
X76986904Y-64586094D01*
X76989092Y-64599703D01*
X76997652Y-64681144D01*
X77001696Y-64719616D01*
X77006458Y-64764928D01*
X77065473Y-64946556D01*
X77068776Y-64952278D01*
X77068777Y-64952279D01*
X77090400Y-64989731D01*
X77160960Y-65111944D01*
X77165378Y-65116851D01*
X77165379Y-65116852D01*
X77259723Y-65221632D01*
X77288747Y-65253866D01*
X77443248Y-65366118D01*
X77449276Y-65368802D01*
X77449278Y-65368803D01*
X77604824Y-65438056D01*
X77617712Y-65443794D01*
X77711112Y-65463647D01*
X77798056Y-65482128D01*
X77798061Y-65482128D01*
X77804513Y-65483500D01*
X77995487Y-65483500D01*
X78001939Y-65482128D01*
X78001944Y-65482128D01*
X78088888Y-65463647D01*
X78182288Y-65443794D01*
X78195176Y-65438056D01*
X78350722Y-65368803D01*
X78350724Y-65368802D01*
X78356752Y-65366118D01*
X78511253Y-65253866D01*
X78540277Y-65221632D01*
X78634621Y-65116852D01*
X78634622Y-65116851D01*
X78639040Y-65111944D01*
X78709600Y-64989731D01*
X78731223Y-64952279D01*
X78731224Y-64952278D01*
X78734527Y-64946556D01*
X78793542Y-64764928D01*
X78797842Y-64724020D01*
X78808774Y-64620007D01*
X78835787Y-64554350D01*
X78894009Y-64513721D01*
X78964954Y-64511018D01*
X79023179Y-64544083D01*
X79937349Y-65458254D01*
X80846348Y-66367253D01*
X80853888Y-66375539D01*
X80858000Y-66382018D01*
X80863777Y-66387443D01*
X80907651Y-66428643D01*
X80910493Y-66431398D01*
X80930230Y-66451135D01*
X80933427Y-66453615D01*
X80942447Y-66461318D01*
X80974679Y-66491586D01*
X80981625Y-66495405D01*
X80981628Y-66495407D01*
X80992434Y-66501348D01*
X81008953Y-66512199D01*
X81024959Y-66524614D01*
X81032228Y-66527759D01*
X81032232Y-66527762D01*
X81065537Y-66542174D01*
X81076187Y-66547391D01*
X81114940Y-66568695D01*
X81122615Y-66570666D01*
X81122616Y-66570666D01*
X81134562Y-66573733D01*
X81153267Y-66580137D01*
X81171855Y-66588181D01*
X81179678Y-66589420D01*
X81179688Y-66589423D01*
X81215524Y-66595099D01*
X81227144Y-66597505D01*
X81262289Y-66606528D01*
X81269970Y-66608500D01*
X81290224Y-66608500D01*
X81309934Y-66610051D01*
X81329943Y-66613220D01*
X81337835Y-66612474D01*
X81373961Y-66609059D01*
X81385819Y-66608500D01*
X81584653Y-66608500D01*
X81652774Y-66628502D01*
X81699267Y-66682158D01*
X81709371Y-66752432D01*
X81678291Y-66818808D01*
X81660960Y-66838056D01*
X81565473Y-67003444D01*
X81506458Y-67185072D01*
X81486496Y-67375000D01*
X81487186Y-67381565D01*
X81505109Y-67552090D01*
X81506458Y-67564928D01*
X81565473Y-67746556D01*
X81660960Y-67911944D01*
X81665378Y-67916851D01*
X81665379Y-67916852D01*
X81739127Y-67998757D01*
X81788747Y-68053866D01*
X81943248Y-68166118D01*
X81949276Y-68168802D01*
X81949278Y-68168803D01*
X82081453Y-68227651D01*
X82117712Y-68243794D01*
X82124164Y-68245165D01*
X82124166Y-68245166D01*
X82140460Y-68248629D01*
X82151276Y-68250928D01*
X82214176Y-68285080D01*
X82821343Y-68892247D01*
X82828887Y-68900537D01*
X82833000Y-68907018D01*
X82838777Y-68912443D01*
X82882667Y-68953658D01*
X82885509Y-68956413D01*
X82905231Y-68976135D01*
X82908355Y-68978558D01*
X82908359Y-68978562D01*
X82908424Y-68978612D01*
X82917445Y-68986317D01*
X82949679Y-69016586D01*
X82956627Y-69020405D01*
X82956629Y-69020407D01*
X82967432Y-69026346D01*
X82983959Y-69037202D01*
X82993698Y-69044757D01*
X82993700Y-69044758D01*
X82999960Y-69049614D01*
X83040540Y-69067174D01*
X83051188Y-69072391D01*
X83075976Y-69086018D01*
X83089940Y-69093695D01*
X83097616Y-69095666D01*
X83097619Y-69095667D01*
X83109562Y-69098733D01*
X83128267Y-69105137D01*
X83146855Y-69113181D01*
X83154678Y-69114420D01*
X83154688Y-69114423D01*
X83190524Y-69120099D01*
X83202144Y-69122505D01*
X83233959Y-69130673D01*
X83244970Y-69133500D01*
X83265224Y-69133500D01*
X83284934Y-69135051D01*
X83304943Y-69138220D01*
X83312835Y-69137474D01*
X83331580Y-69135702D01*
X83348962Y-69134059D01*
X83360819Y-69133500D01*
X85471233Y-69133500D01*
X85482416Y-69134027D01*
X85489909Y-69135702D01*
X85497835Y-69135453D01*
X85497836Y-69135453D01*
X85557986Y-69133562D01*
X85561945Y-69133500D01*
X85589856Y-69133500D01*
X85593791Y-69133003D01*
X85593856Y-69132995D01*
X85605693Y-69132062D01*
X85637951Y-69131048D01*
X85641970Y-69130922D01*
X85649889Y-69130673D01*
X85669343Y-69125021D01*
X85688700Y-69121013D01*
X85700930Y-69119468D01*
X85700931Y-69119468D01*
X85708797Y-69118474D01*
X85716168Y-69115555D01*
X85716170Y-69115555D01*
X85749912Y-69102196D01*
X85761142Y-69098351D01*
X85795983Y-69088229D01*
X85795984Y-69088229D01*
X85803593Y-69086018D01*
X85810412Y-69081985D01*
X85810417Y-69081983D01*
X85821028Y-69075707D01*
X85838776Y-69067012D01*
X85857617Y-69059552D01*
X85893387Y-69033564D01*
X85903307Y-69027048D01*
X85934535Y-69008580D01*
X85934538Y-69008578D01*
X85941362Y-69004542D01*
X85955683Y-68990221D01*
X85970717Y-68977380D01*
X85972431Y-68976135D01*
X85987107Y-68965472D01*
X86015298Y-68931395D01*
X86023288Y-68922616D01*
X88334210Y-66611695D01*
X90337251Y-66611695D01*
X90337548Y-66616848D01*
X90337548Y-66616851D01*
X90343011Y-66711590D01*
X90350110Y-66834715D01*
X90351247Y-66839761D01*
X90351248Y-66839767D01*
X90371119Y-66927939D01*
X90399222Y-67052639D01*
X90483266Y-67259616D01*
X90599987Y-67450088D01*
X90746250Y-67618938D01*
X90918126Y-67761632D01*
X91111000Y-67874338D01*
X91319692Y-67954030D01*
X91324760Y-67955061D01*
X91324763Y-67955062D01*
X91419508Y-67974338D01*
X91538597Y-67998567D01*
X91543772Y-67998757D01*
X91543774Y-67998757D01*
X91756673Y-68006564D01*
X91756677Y-68006564D01*
X91761837Y-68006753D01*
X91766957Y-68006097D01*
X91766959Y-68006097D01*
X91978288Y-67979025D01*
X91978289Y-67979025D01*
X91983416Y-67978368D01*
X92005538Y-67971731D01*
X92192429Y-67915661D01*
X92192434Y-67915659D01*
X92197384Y-67914174D01*
X92397994Y-67815896D01*
X92579860Y-67686173D01*
X92738096Y-67528489D01*
X92797594Y-67445689D01*
X92865435Y-67351277D01*
X92868453Y-67347077D01*
X92948521Y-67185072D01*
X92965136Y-67151453D01*
X92965137Y-67151451D01*
X92967430Y-67146811D01*
X93032370Y-66933069D01*
X93061529Y-66711590D01*
X93062845Y-66657745D01*
X93063074Y-66648365D01*
X93063074Y-66648361D01*
X93063156Y-66645000D01*
X93044852Y-66422361D01*
X92990431Y-66205702D01*
X92901354Y-66000840D01*
X92780014Y-65813277D01*
X92629670Y-65648051D01*
X92625619Y-65644852D01*
X92625615Y-65644848D01*
X92458414Y-65512800D01*
X92458410Y-65512798D01*
X92454359Y-65509598D01*
X92413053Y-65486796D01*
X92363084Y-65436364D01*
X92348312Y-65366921D01*
X92373428Y-65300516D01*
X92400780Y-65273909D01*
X92453315Y-65236436D01*
X92579860Y-65146173D01*
X92607225Y-65118904D01*
X92682844Y-65043548D01*
X92738096Y-64988489D01*
X92755598Y-64964133D01*
X92865435Y-64811277D01*
X92868453Y-64807077D01*
X92879563Y-64784599D01*
X92965136Y-64611453D01*
X92965137Y-64611451D01*
X92967430Y-64606811D01*
X93032370Y-64393069D01*
X93061529Y-64171590D01*
X93063156Y-64105000D01*
X93044852Y-63882361D01*
X92990431Y-63665702D01*
X92901354Y-63460840D01*
X92780014Y-63273277D01*
X92629670Y-63108051D01*
X92625619Y-63104852D01*
X92625615Y-63104848D01*
X92458414Y-62972800D01*
X92458410Y-62972798D01*
X92454359Y-62969598D01*
X92439940Y-62961638D01*
X92417270Y-62949124D01*
X92412569Y-62946529D01*
X92362598Y-62896097D01*
X92347826Y-62826654D01*
X92372942Y-62760248D01*
X92400294Y-62733641D01*
X92575328Y-62608792D01*
X92583200Y-62602139D01*
X92734052Y-62451812D01*
X92740730Y-62443965D01*
X92865003Y-62271020D01*
X92870313Y-62262183D01*
X92964670Y-62071267D01*
X92968469Y-62061672D01*
X93030377Y-61857910D01*
X93032555Y-61847837D01*
X93033986Y-61836962D01*
X93031775Y-61822778D01*
X93018617Y-61819000D01*
X90383225Y-61819000D01*
X90369694Y-61822973D01*
X90368257Y-61832966D01*
X90398565Y-61967446D01*
X90401645Y-61977275D01*
X90481770Y-62174603D01*
X90486413Y-62183794D01*
X90597694Y-62365388D01*
X90603777Y-62373699D01*
X90743213Y-62534667D01*
X90750580Y-62541883D01*
X90914434Y-62677916D01*
X90922881Y-62683831D01*
X90991969Y-62724203D01*
X91040693Y-62775842D01*
X91053764Y-62845625D01*
X91027033Y-62911396D01*
X90986584Y-62944752D01*
X90973607Y-62951507D01*
X90969474Y-62954610D01*
X90969471Y-62954612D01*
X90799100Y-63082530D01*
X90794965Y-63085635D01*
X90640629Y-63247138D01*
X90514743Y-63431680D01*
X90499003Y-63465590D01*
X90430535Y-63613092D01*
X90420688Y-63634305D01*
X90360989Y-63849570D01*
X90337251Y-64071695D01*
X90337548Y-64076848D01*
X90337548Y-64076851D01*
X90343011Y-64171590D01*
X90350110Y-64294715D01*
X90351247Y-64299761D01*
X90351248Y-64299767D01*
X90372275Y-64393069D01*
X90399222Y-64512639D01*
X90483266Y-64719616D01*
X90523437Y-64785170D01*
X90595726Y-64903134D01*
X90599987Y-64910088D01*
X90746250Y-65078938D01*
X90918126Y-65221632D01*
X90943460Y-65236436D01*
X90991445Y-65264476D01*
X91040169Y-65316114D01*
X91053240Y-65385897D01*
X91026509Y-65451669D01*
X90986055Y-65485027D01*
X90973607Y-65491507D01*
X90969474Y-65494610D01*
X90969471Y-65494612D01*
X90809321Y-65614856D01*
X90794965Y-65625635D01*
X90755783Y-65666637D01*
X90691956Y-65733428D01*
X90640629Y-65787138D01*
X90514743Y-65971680D01*
X90420688Y-66174305D01*
X90360989Y-66389570D01*
X90337251Y-66611695D01*
X88334210Y-66611695D01*
X89197185Y-65748720D01*
X89215455Y-65733604D01*
X89222271Y-65728972D01*
X89227951Y-65722530D01*
X89259411Y-65686845D01*
X89264830Y-65681075D01*
X89276135Y-65669770D01*
X89285943Y-65657126D01*
X89290988Y-65651028D01*
X89322878Y-65614856D01*
X89322878Y-65614855D01*
X89328120Y-65608910D01*
X89331720Y-65601845D01*
X89331860Y-65601571D01*
X89344566Y-65581550D01*
X89344752Y-65581310D01*
X89344754Y-65581306D01*
X89349614Y-65575041D01*
X89371912Y-65523513D01*
X89375282Y-65516352D01*
X89397184Y-65473366D01*
X89397185Y-65473364D01*
X89400786Y-65466296D01*
X89402585Y-65458248D01*
X89409909Y-65435707D01*
X89413181Y-65428145D01*
X89419483Y-65388357D01*
X89421967Y-65372674D01*
X89423450Y-65364901D01*
X89423545Y-65364476D01*
X89435702Y-65310091D01*
X89435443Y-65301857D01*
X89436933Y-65278186D01*
X89436980Y-65277890D01*
X89436980Y-65277885D01*
X89438220Y-65270057D01*
X89435042Y-65236436D01*
X89432936Y-65214153D01*
X89432439Y-65206255D01*
X89430923Y-65158038D01*
X89430674Y-65150111D01*
X89428376Y-65142202D01*
X89423932Y-65118904D01*
X89423903Y-65118599D01*
X89423157Y-65110708D01*
X89404131Y-65057862D01*
X89401686Y-65050336D01*
X89388229Y-65004016D01*
X89388228Y-65004014D01*
X89386018Y-64996407D01*
X89381985Y-64989587D01*
X89381982Y-64989581D01*
X89381823Y-64989312D01*
X89371733Y-64967868D01*
X89371628Y-64967577D01*
X89371624Y-64967569D01*
X89368939Y-64960111D01*
X89337354Y-64913635D01*
X89333145Y-64907004D01*
X89304542Y-64858638D01*
X89298722Y-64852818D01*
X89283606Y-64834547D01*
X89283431Y-64834290D01*
X89278972Y-64827729D01*
X89236845Y-64790589D01*
X89231074Y-64785170D01*
X88428647Y-63982742D01*
X88421113Y-63974463D01*
X88417000Y-63967982D01*
X88367348Y-63921356D01*
X88364507Y-63918602D01*
X88344770Y-63898865D01*
X88341573Y-63896385D01*
X88332551Y-63888680D01*
X88306100Y-63863841D01*
X88300321Y-63858414D01*
X88293375Y-63854595D01*
X88293372Y-63854593D01*
X88282566Y-63848652D01*
X88266047Y-63837801D01*
X88265583Y-63837441D01*
X88250041Y-63825386D01*
X88242772Y-63822241D01*
X88242768Y-63822238D01*
X88209463Y-63807826D01*
X88198813Y-63802609D01*
X88160060Y-63781305D01*
X88140437Y-63776267D01*
X88121734Y-63769863D01*
X88110420Y-63764967D01*
X88110419Y-63764967D01*
X88103145Y-63761819D01*
X88095322Y-63760580D01*
X88095312Y-63760577D01*
X88059476Y-63754901D01*
X88047856Y-63752495D01*
X88012711Y-63743472D01*
X88012710Y-63743472D01*
X88005030Y-63741500D01*
X87984776Y-63741500D01*
X87965065Y-63739949D01*
X87952886Y-63738020D01*
X87945057Y-63736780D01*
X87915786Y-63739547D01*
X87901039Y-63740941D01*
X87889181Y-63741500D01*
X86253382Y-63741500D01*
X86242199Y-63740973D01*
X86234706Y-63739298D01*
X86226780Y-63739547D01*
X86226779Y-63739547D01*
X86166616Y-63741438D01*
X86162658Y-63741500D01*
X86134758Y-63741500D01*
X86130768Y-63742004D01*
X86118934Y-63742936D01*
X86074725Y-63744326D01*
X86067109Y-63746539D01*
X86067107Y-63746539D01*
X86055266Y-63749979D01*
X86035907Y-63753988D01*
X86034597Y-63754154D01*
X86015817Y-63756526D01*
X86008451Y-63759442D01*
X86008445Y-63759444D01*
X85974712Y-63772800D01*
X85963485Y-63776644D01*
X85929569Y-63786498D01*
X85894419Y-63791500D01*
X85834500Y-63791500D01*
X85766379Y-63771498D01*
X85719886Y-63717842D01*
X85708500Y-63665500D01*
X85708500Y-62301895D01*
X85728502Y-62233774D01*
X85782158Y-62187281D01*
X85852432Y-62177177D01*
X85893176Y-62191280D01*
X85893248Y-62191118D01*
X85899276Y-62193802D01*
X85899278Y-62193803D01*
X85989055Y-62233774D01*
X86067712Y-62268794D01*
X86161113Y-62288647D01*
X86248056Y-62307128D01*
X86248061Y-62307128D01*
X86254513Y-62308500D01*
X86445487Y-62308500D01*
X86451939Y-62307128D01*
X86451944Y-62307128D01*
X86538887Y-62288647D01*
X86632288Y-62268794D01*
X86710945Y-62233774D01*
X86800722Y-62193803D01*
X86800724Y-62193802D01*
X86806752Y-62191118D01*
X86834075Y-62171267D01*
X86862157Y-62150864D01*
X86961253Y-62078866D01*
X87089040Y-61936944D01*
X87184527Y-61771556D01*
X87243542Y-61589928D01*
X87260907Y-61424706D01*
X87287920Y-61359050D01*
X87297122Y-61348782D01*
X88950499Y-59695405D01*
X89012811Y-59661379D01*
X89039594Y-59658500D01*
X90215500Y-59658500D01*
X90283621Y-59678502D01*
X90330114Y-59732158D01*
X90341500Y-59784500D01*
X90341500Y-59923134D01*
X90348255Y-59985316D01*
X90399385Y-60121705D01*
X90486739Y-60238261D01*
X90603295Y-60325615D01*
X90611704Y-60328767D01*
X90611705Y-60328768D01*
X90720960Y-60369726D01*
X90777725Y-60412367D01*
X90802425Y-60478929D01*
X90787218Y-60548278D01*
X90767825Y-60574759D01*
X90644590Y-60703717D01*
X90638104Y-60711727D01*
X90518098Y-60887649D01*
X90513000Y-60896623D01*
X90423338Y-61089783D01*
X90419775Y-61099470D01*
X90364389Y-61299183D01*
X90365912Y-61307607D01*
X90378292Y-61311000D01*
X93018344Y-61311000D01*
X93031875Y-61307027D01*
X93033180Y-61297947D01*
X92991214Y-61130875D01*
X92987894Y-61121124D01*
X92902972Y-60925814D01*
X92898105Y-60916739D01*
X92782426Y-60737926D01*
X92776136Y-60729757D01*
X92632293Y-60571677D01*
X92601241Y-60507831D01*
X92609635Y-60437333D01*
X92654812Y-60382564D01*
X92681256Y-60368895D01*
X92788297Y-60328767D01*
X92796705Y-60325615D01*
X92913261Y-60238261D01*
X93000615Y-60121705D01*
X93051745Y-59985316D01*
X93058500Y-59923134D01*
X93058500Y-58126866D01*
X93051745Y-58064684D01*
X93000615Y-57928295D01*
X92913261Y-57811739D01*
X92796705Y-57724385D01*
X92660316Y-57673255D01*
X92598134Y-57666500D01*
X90801866Y-57666500D01*
X90739684Y-57673255D01*
X90603295Y-57724385D01*
X90486739Y-57811739D01*
X90399385Y-57928295D01*
X90348255Y-58064684D01*
X90341500Y-58126866D01*
X90341500Y-58265500D01*
X90321498Y-58333621D01*
X90267842Y-58380114D01*
X90215500Y-58391500D01*
X88803767Y-58391500D01*
X88792584Y-58390973D01*
X88785091Y-58389298D01*
X88777165Y-58389547D01*
X88777164Y-58389547D01*
X88717014Y-58391438D01*
X88713055Y-58391500D01*
X88685144Y-58391500D01*
X88681210Y-58391997D01*
X88681209Y-58391997D01*
X88681144Y-58392005D01*
X88669307Y-58392938D01*
X88637490Y-58393938D01*
X88633029Y-58394078D01*
X88625110Y-58394327D01*
X88607454Y-58399456D01*
X88605658Y-58399978D01*
X88586306Y-58403986D01*
X88579235Y-58404880D01*
X88566203Y-58406526D01*
X88558834Y-58409443D01*
X88558832Y-58409444D01*
X88525097Y-58422800D01*
X88513869Y-58426645D01*
X88471407Y-58438982D01*
X88464585Y-58443016D01*
X88464579Y-58443019D01*
X88453968Y-58449294D01*
X88436218Y-58457990D01*
X88424756Y-58462528D01*
X88424751Y-58462531D01*
X88417383Y-58465448D01*
X88410968Y-58470109D01*
X88381625Y-58491427D01*
X88371707Y-58497943D01*
X88353019Y-58508995D01*
X88333637Y-58520458D01*
X88319313Y-58534782D01*
X88304281Y-58547621D01*
X88287893Y-58559528D01*
X88259712Y-58593593D01*
X88251722Y-58602373D01*
X87398350Y-59455745D01*
X87336038Y-59489771D01*
X87265223Y-59484706D01*
X87221441Y-59454924D01*
X87220778Y-59455660D01*
X87215876Y-59451246D01*
X87211454Y-59446335D01*
X87056953Y-59334083D01*
X87050925Y-59331399D01*
X87050923Y-59331398D01*
X86888520Y-59259092D01*
X86888519Y-59259092D01*
X86882489Y-59256407D01*
X86789089Y-59236554D01*
X86702145Y-59218073D01*
X86702140Y-59218073D01*
X86695688Y-59216701D01*
X86504714Y-59216701D01*
X86498262Y-59218073D01*
X86498257Y-59218073D01*
X86411313Y-59236554D01*
X86317913Y-59256407D01*
X86311883Y-59259092D01*
X86311882Y-59259092D01*
X86149479Y-59331398D01*
X86149477Y-59331399D01*
X86143449Y-59334083D01*
X85988948Y-59446335D01*
X85984527Y-59451245D01*
X85984526Y-59451246D01*
X85954399Y-59484706D01*
X85861161Y-59588257D01*
X85799299Y-59695405D01*
X85765758Y-59753500D01*
X85714376Y-59802493D01*
X85656639Y-59816500D01*
X85146793Y-59816500D01*
X85123184Y-59814268D01*
X85122881Y-59814210D01*
X85122877Y-59814210D01*
X85115094Y-59812725D01*
X85059049Y-59816251D01*
X85051138Y-59816500D01*
X85035144Y-59816500D01*
X85019270Y-59818506D01*
X85011410Y-59819248D01*
X84988763Y-59820673D01*
X84963263Y-59822277D01*
X84963262Y-59822277D01*
X84955350Y-59822775D01*
X84947809Y-59825225D01*
X84947513Y-59825321D01*
X84924369Y-59830494D01*
X84924065Y-59830532D01*
X84924060Y-59830533D01*
X84916203Y-59831526D01*
X84908838Y-59834442D01*
X84908834Y-59834443D01*
X84863989Y-59852199D01*
X84856570Y-59854871D01*
X84803125Y-59872236D01*
X84796429Y-59876486D01*
X84796428Y-59876486D01*
X84796169Y-59876650D01*
X84775042Y-59887415D01*
X84774754Y-59887529D01*
X84774749Y-59887532D01*
X84767383Y-59890448D01*
X84760975Y-59895104D01*
X84760969Y-59895107D01*
X84721948Y-59923458D01*
X84715411Y-59927901D01*
X84667982Y-59958000D01*
X84662556Y-59963778D01*
X84662555Y-59963779D01*
X84662341Y-59964007D01*
X84644554Y-59979688D01*
X84644309Y-59979866D01*
X84644307Y-59979868D01*
X84637893Y-59984528D01*
X84632839Y-59990637D01*
X84632838Y-59990638D01*
X84602097Y-60027796D01*
X84596866Y-60033730D01*
X84563842Y-60068898D01*
X84563840Y-60068901D01*
X84558414Y-60074679D01*
X84554445Y-60081899D01*
X84541119Y-60101506D01*
X84540920Y-60101746D01*
X84540916Y-60101753D01*
X84535867Y-60107856D01*
X84525969Y-60128891D01*
X84511953Y-60158676D01*
X84508371Y-60165708D01*
X84481305Y-60214940D01*
X84479335Y-60222615D01*
X84479332Y-60222621D01*
X84479256Y-60222919D01*
X84471224Y-60245228D01*
X84471094Y-60245503D01*
X84471091Y-60245511D01*
X84467717Y-60252682D01*
X84460657Y-60289693D01*
X84457195Y-60307843D01*
X84455471Y-60315558D01*
X84441500Y-60369970D01*
X84441500Y-60378207D01*
X84439268Y-60401816D01*
X84437725Y-60409906D01*
X84440551Y-60454828D01*
X84441251Y-60465951D01*
X84441500Y-60473862D01*
X84441500Y-64353207D01*
X84439268Y-64376816D01*
X84439210Y-64377118D01*
X84439210Y-64377123D01*
X84437725Y-64384906D01*
X84438660Y-64399767D01*
X84441251Y-64440945D01*
X84441500Y-64448857D01*
X84441500Y-64464856D01*
X84443506Y-64480730D01*
X84444248Y-64488590D01*
X84447775Y-64544650D01*
X84450225Y-64552191D01*
X84450321Y-64552487D01*
X84455494Y-64575631D01*
X84455532Y-64575935D01*
X84455533Y-64575940D01*
X84456526Y-64583797D01*
X84459442Y-64591162D01*
X84459443Y-64591166D01*
X84477199Y-64636011D01*
X84479871Y-64643430D01*
X84497236Y-64696875D01*
X84501486Y-64703571D01*
X84501486Y-64703572D01*
X84501650Y-64703831D01*
X84512415Y-64724958D01*
X84512529Y-64725246D01*
X84512532Y-64725251D01*
X84515448Y-64732617D01*
X84520104Y-64739025D01*
X84520107Y-64739031D01*
X84548458Y-64778052D01*
X84552901Y-64784589D01*
X84583000Y-64832018D01*
X84588778Y-64837444D01*
X84588779Y-64837445D01*
X84589007Y-64837659D01*
X84604688Y-64855446D01*
X84609528Y-64862107D01*
X84615637Y-64867161D01*
X84615638Y-64867162D01*
X84652796Y-64897903D01*
X84658730Y-64903134D01*
X84693898Y-64936158D01*
X84693901Y-64936160D01*
X84699679Y-64941586D01*
X84706903Y-64945558D01*
X84726506Y-64958881D01*
X84726746Y-64959080D01*
X84726753Y-64959084D01*
X84732856Y-64964133D01*
X84764597Y-64979069D01*
X84783676Y-64988047D01*
X84790708Y-64991629D01*
X84839940Y-65018695D01*
X84847615Y-65020665D01*
X84847621Y-65020668D01*
X84847919Y-65020744D01*
X84870228Y-65028776D01*
X84870503Y-65028906D01*
X84870511Y-65028909D01*
X84877682Y-65032283D01*
X84932849Y-65042806D01*
X84940558Y-65044529D01*
X84974551Y-65053257D01*
X84987293Y-65056529D01*
X84987294Y-65056529D01*
X84994970Y-65058500D01*
X85003207Y-65058500D01*
X85026816Y-65060732D01*
X85027119Y-65060790D01*
X85027123Y-65060790D01*
X85034906Y-65062275D01*
X85090951Y-65058749D01*
X85098862Y-65058500D01*
X85978034Y-65058500D01*
X86046155Y-65078502D01*
X86092648Y-65132158D01*
X86102752Y-65202432D01*
X86073258Y-65267012D01*
X86052095Y-65286436D01*
X86038747Y-65296134D01*
X86034332Y-65301037D01*
X86029420Y-65305460D01*
X86028295Y-65304211D01*
X85974986Y-65337051D01*
X85941800Y-65341500D01*
X81664594Y-65341500D01*
X81596473Y-65321498D01*
X81575499Y-65304595D01*
X79047122Y-62776217D01*
X79013096Y-62713905D01*
X79010907Y-62700292D01*
X78994232Y-62541635D01*
X78994232Y-62541633D01*
X78993542Y-62535072D01*
X78934527Y-62353444D01*
X78839040Y-62188056D01*
X78739293Y-62077275D01*
X78715675Y-62051045D01*
X78715674Y-62051044D01*
X78711253Y-62046134D01*
X78589824Y-61957910D01*
X78562094Y-61937763D01*
X78562093Y-61937762D01*
X78556752Y-61933882D01*
X78550724Y-61931198D01*
X78550722Y-61931197D01*
X78388319Y-61858891D01*
X78388318Y-61858891D01*
X78382288Y-61856206D01*
X78272953Y-61832966D01*
X78201944Y-61817872D01*
X78201939Y-61817872D01*
X78195487Y-61816500D01*
X78034500Y-61816500D01*
X77966379Y-61796498D01*
X77919886Y-61742842D01*
X77908500Y-61690500D01*
X77908500Y-60897000D01*
X77928502Y-60828879D01*
X77982158Y-60782386D01*
X78034500Y-60771000D01*
X78057987Y-60771000D01*
X78064439Y-60769628D01*
X78064444Y-60769628D01*
X78151388Y-60751147D01*
X78244788Y-60731294D01*
X78250819Y-60728609D01*
X78413222Y-60656303D01*
X78413224Y-60656302D01*
X78419252Y-60653618D01*
X78573753Y-60541366D01*
X78625856Y-60483500D01*
X78697121Y-60404352D01*
X78697122Y-60404351D01*
X78701540Y-60399444D01*
X78769050Y-60282514D01*
X78793723Y-60239779D01*
X78793724Y-60239778D01*
X78797027Y-60234056D01*
X78856042Y-60052428D01*
X78858647Y-60027649D01*
X78875314Y-59869065D01*
X78876004Y-59862500D01*
X78870825Y-59813223D01*
X78856732Y-59679135D01*
X78856732Y-59679133D01*
X78856042Y-59672572D01*
X78797027Y-59490944D01*
X78793426Y-59484706D01*
X78704841Y-59331274D01*
X78701540Y-59325556D01*
X78628363Y-59244285D01*
X78597647Y-59180279D01*
X78596000Y-59159976D01*
X78596000Y-57045659D01*
X78616002Y-56977538D01*
X78647939Y-56943723D01*
X78661253Y-56934050D01*
X78789040Y-56792128D01*
X78847314Y-56691194D01*
X78881223Y-56632463D01*
X78881224Y-56632462D01*
X78884527Y-56626740D01*
X78943542Y-56445112D01*
X78949978Y-56383882D01*
X78962814Y-56261749D01*
X78963504Y-56255184D01*
X78943542Y-56065256D01*
X78884527Y-55883628D01*
X78789040Y-55718240D01*
X78661253Y-55576318D01*
X78506752Y-55464066D01*
X78500724Y-55461382D01*
X78500722Y-55461381D01*
X78338319Y-55389075D01*
X78338318Y-55389075D01*
X78332288Y-55386390D01*
X78238888Y-55366537D01*
X78151944Y-55348056D01*
X78151939Y-55348056D01*
X78145487Y-55346684D01*
X77954513Y-55346684D01*
X77948061Y-55348056D01*
X77948056Y-55348056D01*
X77861112Y-55366537D01*
X77767712Y-55386390D01*
X77761682Y-55389075D01*
X77761681Y-55389075D01*
X77599278Y-55461381D01*
X77599276Y-55461382D01*
X77593248Y-55464066D01*
X77438747Y-55576318D01*
X77310960Y-55718240D01*
X77215473Y-55883628D01*
X77156458Y-56065256D01*
X77155769Y-56071815D01*
X77155768Y-56071818D01*
X77144147Y-56182389D01*
X77117134Y-56248045D01*
X77058912Y-56288675D01*
X76992640Y-56292464D01*
X76876953Y-56267873D01*
X76876940Y-56267872D01*
X76870487Y-56266500D01*
X76679513Y-56266500D01*
X76673061Y-56267872D01*
X76673056Y-56267872D01*
X76586112Y-56286353D01*
X76492712Y-56306206D01*
X76486682Y-56308891D01*
X76486681Y-56308891D01*
X76324278Y-56381197D01*
X76324276Y-56381198D01*
X76318248Y-56383882D01*
X76312907Y-56387762D01*
X76312906Y-56387763D01*
X76185329Y-56480454D01*
X76163747Y-56496134D01*
X76159332Y-56501037D01*
X76154420Y-56505460D01*
X76153295Y-56504211D01*
X76099986Y-56537051D01*
X76066800Y-56541500D01*
X71283200Y-56541500D01*
X71215079Y-56521498D01*
X71195853Y-56505157D01*
X71195580Y-56505460D01*
X71190668Y-56501037D01*
X71186253Y-56496134D01*
X71164671Y-56480454D01*
X71037094Y-56387763D01*
X71037093Y-56387762D01*
X71031752Y-56383882D01*
X71025724Y-56381198D01*
X71025722Y-56381197D01*
X70863319Y-56308891D01*
X70863318Y-56308891D01*
X70857288Y-56306206D01*
X70763888Y-56286353D01*
X70676944Y-56267872D01*
X70676939Y-56267872D01*
X70670487Y-56266500D01*
X70479513Y-56266500D01*
X70473061Y-56267872D01*
X70473056Y-56267872D01*
X70386112Y-56286353D01*
X70292712Y-56306206D01*
X70286682Y-56308891D01*
X70286681Y-56308891D01*
X70124278Y-56381197D01*
X70124276Y-56381198D01*
X70118248Y-56383882D01*
X69963747Y-56496134D01*
X69835960Y-56638056D01*
X69832659Y-56643774D01*
X69744173Y-56797036D01*
X69740473Y-56803444D01*
X69681458Y-56985072D01*
X69661496Y-57175000D01*
X60933500Y-57175000D01*
X60933500Y-54009500D01*
X60953502Y-53941379D01*
X61007158Y-53894886D01*
X61059500Y-53883500D01*
X93315500Y-53883500D01*
X93383621Y-53903502D01*
G37*
%TD.AperFunction*%
%TD*%
M02*
