%TF.GenerationSoftware,KiCad,Pcbnew,(6.0.4-0)*%
%TF.CreationDate,2022-05-03T23:28:53-04:00*%
%TF.ProjectId,antennaamp,616e7465-6e6e-4616-916d-702e6b696361,rev?*%
%TF.SameCoordinates,Original*%
%TF.FileFunction,Copper,L1,Top*%
%TF.FilePolarity,Positive*%
%FSLAX46Y46*%
G04 Gerber Fmt 4.6, Leading zero omitted, Abs format (unit mm)*
G04 Created by KiCad (PCBNEW (6.0.4-0)) date 2022-05-03 23:28:53*
%MOMM*%
%LPD*%
G01*
G04 APERTURE LIST*
G04 Aperture macros list*
%AMRoundRect*
0 Rectangle with rounded corners*
0 $1 Rounding radius*
0 $2 $3 $4 $5 $6 $7 $8 $9 X,Y pos of 4 corners*
0 Add a 4 corners polygon primitive as box body*
4,1,4,$2,$3,$4,$5,$6,$7,$8,$9,$2,$3,0*
0 Add four circle primitives for the rounded corners*
1,1,$1+$1,$2,$3*
1,1,$1+$1,$4,$5*
1,1,$1+$1,$6,$7*
1,1,$1+$1,$8,$9*
0 Add four rect primitives between the rounded corners*
20,1,$1+$1,$2,$3,$4,$5,0*
20,1,$1+$1,$4,$5,$6,$7,0*
20,1,$1+$1,$6,$7,$8,$9,0*
20,1,$1+$1,$8,$9,$2,$3,0*%
G04 Aperture macros list end*
%TA.AperFunction,SMDPad,CuDef*%
%ADD10RoundRect,0.237500X0.250000X0.237500X-0.250000X0.237500X-0.250000X-0.237500X0.250000X-0.237500X0*%
%TD*%
%TA.AperFunction,SMDPad,CuDef*%
%ADD11RoundRect,0.150000X-0.825000X-0.150000X0.825000X-0.150000X0.825000X0.150000X-0.825000X0.150000X0*%
%TD*%
%TA.AperFunction,SMDPad,CuDef*%
%ADD12RoundRect,0.237500X-0.250000X-0.237500X0.250000X-0.237500X0.250000X0.237500X-0.250000X0.237500X0*%
%TD*%
%TA.AperFunction,ComponentPad*%
%ADD13R,1.700000X1.700000*%
%TD*%
%TA.AperFunction,ComponentPad*%
%ADD14O,1.700000X1.700000*%
%TD*%
%TA.AperFunction,SMDPad,CuDef*%
%ADD15RoundRect,0.237500X-0.300000X-0.237500X0.300000X-0.237500X0.300000X0.237500X-0.300000X0.237500X0*%
%TD*%
%TA.AperFunction,SMDPad,CuDef*%
%ADD16RoundRect,0.237500X0.300000X0.237500X-0.300000X0.237500X-0.300000X-0.237500X0.300000X-0.237500X0*%
%TD*%
%TA.AperFunction,ViaPad*%
%ADD17C,0.800000*%
%TD*%
%TA.AperFunction,Conductor*%
%ADD18C,0.250000*%
%TD*%
G04 APERTURE END LIST*
D10*
%TO.P,R1,1*%
%TO.N,Net-(C1-Pad2)*%
X68112500Y-58025000D03*
%TO.P,R1,2*%
%TO.N,Net-(J2-Pad1)*%
X66287500Y-58025000D03*
%TD*%
D11*
%TO.P,U1,1*%
%TO.N,Net-(C4-Pad1)*%
X75650000Y-58640000D03*
%TO.P,U1,2,-*%
%TO.N,Net-(C1-Pad1)*%
X75650000Y-59910000D03*
%TO.P,U1,3,+*%
%TO.N,GND*%
X75650000Y-61180000D03*
%TO.P,U1,4,V+*%
%TO.N,+12V*%
X75650000Y-62450000D03*
%TO.P,U1,5,+*%
%TO.N,GND*%
X75650000Y-63720000D03*
%TO.P,U1,6,-*%
%TO.N,Net-(R4-Pad1)*%
X75650000Y-64990000D03*
%TO.P,U1,7*%
%TO.N,Net-(R3-Pad1)*%
X75650000Y-66260000D03*
%TO.P,U1,8*%
%TO.N,Net-(C6-Pad1)*%
X80600000Y-66260000D03*
%TO.P,U1,9,-*%
%TO.N,Net-(C5-Pad1)*%
X80600000Y-64990000D03*
%TO.P,U1,10,+*%
%TO.N,GND*%
X80600000Y-63720000D03*
%TO.P,U1,11,V-*%
%TO.N,-12V*%
X80600000Y-62450000D03*
%TO.P,U1,12,+*%
%TO.N,GND*%
X80600000Y-61180000D03*
%TO.P,U1,13,-*%
%TO.N,Net-(R10-Pad2)*%
X80600000Y-59910000D03*
%TO.P,U1,14*%
%TO.N,Net-(R10-Pad1)*%
X80600000Y-58640000D03*
%TD*%
D12*
%TO.P,R10,1*%
%TO.N,Net-(R10-Pad1)*%
X83287500Y-58400000D03*
%TO.P,R10,2*%
%TO.N,Net-(R10-Pad2)*%
X85112500Y-58400000D03*
%TD*%
%TO.P,R9,1*%
%TO.N,Net-(R10-Pad2)*%
X83287500Y-60425000D03*
%TO.P,R9,2*%
%TO.N,Net-(C6-Pad1)*%
X85112500Y-60425000D03*
%TD*%
%TO.P,R8,1*%
%TO.N,Net-(R10-Pad1)*%
X83237500Y-56050000D03*
%TO.P,R8,2*%
%TO.N,Net-(C5-Pad2)*%
X85062500Y-56050000D03*
%TD*%
D10*
%TO.P,R7,2*%
%TO.N,Net-(C5-Pad1)*%
X79312500Y-68850000D03*
%TO.P,R7,1*%
%TO.N,Net-(C6-Pad1)*%
X81137500Y-68850000D03*
%TD*%
%TO.P,R6,1*%
%TO.N,Net-(C5-Pad2)*%
X76050000Y-68825000D03*
%TO.P,R6,2*%
%TO.N,Net-(R3-Pad1)*%
X74225000Y-68825000D03*
%TD*%
%TO.P,R5,1*%
%TO.N,Net-(R3-Pad1)*%
X72587500Y-64875000D03*
%TO.P,R5,2*%
%TO.N,Net-(R4-Pad1)*%
X70762500Y-64875000D03*
%TD*%
D12*
%TO.P,R4,2*%
%TO.N,Net-(C4-Pad1)*%
X72450000Y-59850000D03*
%TO.P,R4,1*%
%TO.N,Net-(R4-Pad1)*%
X70625000Y-59850000D03*
%TD*%
D10*
%TO.P,R3,1*%
%TO.N,Net-(R3-Pad1)*%
X72312500Y-55825000D03*
%TO.P,R3,2*%
%TO.N,Net-(C1-Pad2)*%
X70487500Y-55825000D03*
%TD*%
%TO.P,R2,1*%
%TO.N,Net-(C4-Pad1)*%
X68225000Y-55800000D03*
%TO.P,R2,2*%
%TO.N,Net-(C1-Pad1)*%
X66400000Y-55800000D03*
%TD*%
D13*
%TO.P,J2,1,Pin_1*%
%TO.N,Net-(J2-Pad1)*%
X62625000Y-59125000D03*
D14*
%TO.P,J2,2,Pin_2*%
%TO.N,GND*%
X62625000Y-61665000D03*
%TO.P,J2,3,Pin_3*%
%TO.N,unconnected-(J2-Pad3)*%
X62625000Y-64205000D03*
%TO.P,J2,4,Pin_4*%
%TO.N,unconnected-(J2-Pad4)*%
X62625000Y-66745000D03*
%TD*%
D13*
%TO.P,J1,1,Pin_1*%
%TO.N,+12V*%
X91700000Y-59025000D03*
D14*
%TO.P,J1,2,Pin_2*%
%TO.N,GND*%
X91700000Y-61565000D03*
%TO.P,J1,3,Pin_3*%
%TO.N,unconnected-(J1-Pad3)*%
X91700000Y-64105000D03*
%TO.P,J1,4,Pin_4*%
%TO.N,-12V*%
X91700000Y-66645000D03*
%TD*%
D15*
%TO.P,C6,1*%
%TO.N,Net-(C6-Pad1)*%
X83600000Y-67350000D03*
%TO.P,C6,2*%
%TO.N,Net-(C5-Pad2)*%
X85325000Y-67350000D03*
%TD*%
%TO.P,C5,1*%
%TO.N,Net-(C5-Pad1)*%
X83537500Y-64975000D03*
%TO.P,C5,2*%
%TO.N,Net-(C5-Pad2)*%
X85262500Y-64975000D03*
%TD*%
%TO.P,C4,1*%
%TO.N,Net-(C4-Pad1)*%
X74562500Y-55825000D03*
%TO.P,C4,2*%
%TO.N,Net-(C1-Pad2)*%
X76287500Y-55825000D03*
%TD*%
D16*
%TO.P,C3,1*%
%TO.N,GND*%
X85162500Y-62650000D03*
%TO.P,C3,2*%
%TO.N,-12V*%
X83437500Y-62650000D03*
%TD*%
D15*
%TO.P,C2,2*%
%TO.N,+12V*%
X72600000Y-62625000D03*
%TO.P,C2,1*%
%TO.N,GND*%
X70875000Y-62625000D03*
%TD*%
D16*
%TO.P,C1,1*%
%TO.N,Net-(C1-Pad1)*%
X72375000Y-58075000D03*
%TO.P,C1,2*%
%TO.N,Net-(C1-Pad2)*%
X70650000Y-58075000D03*
%TD*%
D17*
%TO.N,Net-(R3-Pad1)*%
X78050000Y-56255184D03*
X77962500Y-59862500D03*
X77900000Y-64575000D03*
%TO.N,Net-(C6-Pad1)*%
X82400000Y-67375000D03*
X86600201Y-60125201D03*
%TO.N,Net-(C1-Pad2)*%
X76775000Y-57175000D03*
X70575000Y-57175000D03*
%TO.N,GND*%
X86425000Y-62625000D03*
X88300000Y-62625000D03*
%TO.N,-12V*%
X78100000Y-62725000D03*
X86650000Y-65975000D03*
%TO.N,+12V*%
X86350000Y-61400000D03*
%TD*%
D18*
%TO.N,Net-(R3-Pad1)*%
X77900000Y-64575000D02*
X76215000Y-66260000D01*
X72312500Y-55825000D02*
X73112020Y-55025480D01*
X73112020Y-55025480D02*
X76820296Y-55025480D01*
X76820296Y-55025480D02*
X78050000Y-56255184D01*
X77875000Y-56180184D02*
X77875000Y-59700000D01*
%TO.N,Net-(C6-Pad1)*%
X86300402Y-60425000D02*
X86600201Y-60125201D01*
X85112500Y-60425000D02*
X86300402Y-60425000D01*
X82400000Y-67375000D02*
X83575000Y-67375000D01*
%TO.N,Net-(C1-Pad2)*%
X76287500Y-55825000D02*
X76287500Y-56687500D01*
X76287500Y-56687500D02*
X76775000Y-57175000D01*
%TO.N,GND*%
X91700000Y-61565000D02*
X89235000Y-61565000D01*
X89235000Y-61565000D02*
X88300000Y-62500000D01*
X88300000Y-62500000D02*
X88300000Y-62625000D01*
X75650000Y-61180000D02*
X72320000Y-61180000D01*
X72320000Y-61180000D02*
X70875000Y-62625000D01*
%TO.N,-12V*%
X87320000Y-66645000D02*
X91700000Y-66645000D01*
X87320000Y-66645000D02*
X86650000Y-65975000D01*
X78100000Y-62725000D02*
X80325000Y-62725000D01*
X80325000Y-62725000D02*
X80600000Y-62450000D01*
%TO.N,GND*%
X80600000Y-61180000D02*
X75650000Y-61180000D01*
X75650000Y-63720000D02*
X80600000Y-63720000D01*
X70875000Y-62625000D02*
X71674520Y-63424520D01*
X71674520Y-63424520D02*
X75354520Y-63424520D01*
X75354520Y-63424520D02*
X75650000Y-63720000D01*
%TO.N,Net-(R4-Pad1)*%
X70625000Y-59850000D02*
X70012980Y-60462020D01*
X70012980Y-60462020D02*
X70012980Y-64125480D01*
X70012980Y-64125480D02*
X70762500Y-64875000D01*
%TO.N,Net-(C1-Pad1)*%
X66400000Y-55800000D02*
X67099520Y-56499520D01*
X67099520Y-56499520D02*
X67099520Y-58316303D01*
X67099520Y-58316303D02*
X67833697Y-59050480D01*
X67833697Y-59050480D02*
X71399520Y-59050480D01*
%TO.N,Net-(C4-Pad1)*%
X76026072Y-58640000D02*
X76949520Y-59563448D01*
X73134520Y-60534520D02*
X72701701Y-60101701D01*
X76949520Y-60275480D02*
X76690480Y-60534520D01*
X76949520Y-59563448D02*
X76949520Y-60275480D01*
X76690480Y-60534520D02*
X73134520Y-60534520D01*
%TO.N,Net-(C1-Pad1)*%
X75273928Y-59910000D02*
X73438928Y-58075000D01*
X73438928Y-58075000D02*
X72375000Y-58075000D01*
X71399520Y-59050480D02*
X72375000Y-58075000D01*
%TO.N,Net-(C1-Pad2)*%
X70487500Y-57137500D02*
X70575000Y-57225000D01*
X70650000Y-58075000D02*
X70650000Y-57300000D01*
X70575000Y-57225000D02*
X70625472Y-57275472D01*
X70650000Y-57300000D02*
X70575000Y-57225000D01*
%TO.N,-12V*%
X80600000Y-62450000D02*
X80800000Y-62650000D01*
X80800000Y-62650000D02*
X83437500Y-62650000D01*
%TO.N,+12V*%
X85945480Y-61804520D02*
X86350000Y-61400000D01*
X76295480Y-61804520D02*
X85945480Y-61804520D01*
X75650000Y-62450000D02*
X76295480Y-61804520D01*
%TO.N,Net-(R10-Pad2)*%
X85112500Y-58600000D02*
X83287500Y-60425000D01*
X80600000Y-59910000D02*
X82772500Y-59910000D01*
X82772500Y-59910000D02*
X83287500Y-60425000D01*
%TO.N,Net-(C5-Pad2)*%
X85062500Y-56050000D02*
X87450000Y-58437500D01*
X87450000Y-58437500D02*
X87450000Y-62787500D01*
X87450000Y-62787500D02*
X85262500Y-64975000D01*
%TO.N,Net-(R10-Pad1)*%
X83287500Y-58400000D02*
X83287500Y-56100000D01*
X80600000Y-58640000D02*
X83047500Y-58640000D01*
%TO.N,Net-(C4-Pad1)*%
X68225000Y-55800000D02*
X68999520Y-55025480D01*
X70970296Y-55025480D02*
X71500480Y-55555664D01*
X71500480Y-56300480D02*
X71850000Y-56650000D01*
X71850000Y-56650000D02*
X73737500Y-56650000D01*
X68999520Y-55025480D02*
X70970296Y-55025480D01*
X73737500Y-56650000D02*
X74562500Y-55825000D01*
X71500480Y-55555664D02*
X71500480Y-56300480D01*
%TO.N,Net-(C5-Pad2)*%
X85325000Y-67350000D02*
X85325000Y-65037500D01*
X76050000Y-68825000D02*
X76874520Y-69649520D01*
X76874520Y-69649520D02*
X83025480Y-69649520D01*
X83025480Y-69649520D02*
X85325000Y-67350000D01*
%TO.N,Net-(R4-Pad1)*%
X75650000Y-64990000D02*
X73984816Y-64990000D01*
X73070296Y-64075480D02*
X71562020Y-64075480D01*
X73984816Y-64990000D02*
X73070296Y-64075480D01*
X71562020Y-64075480D02*
X70762500Y-64875000D01*
%TO.N,Net-(C6-Pad1)*%
X81137500Y-68850000D02*
X82100000Y-68850000D01*
X82100000Y-68850000D02*
X83600000Y-67350000D01*
X81137500Y-68850000D02*
X81137500Y-66797500D01*
X81137500Y-66797500D02*
X80600000Y-66260000D01*
%TO.N,Net-(C5-Pad1)*%
X80600000Y-64990000D02*
X78585000Y-64990000D01*
X78585000Y-64990000D02*
X78585000Y-68122500D01*
X78585000Y-68122500D02*
X79312500Y-68850000D01*
X80600000Y-64990000D02*
X83522500Y-64990000D01*
%TO.N,+12V*%
X72600000Y-62625000D02*
X75475000Y-62625000D01*
%TO.N,Net-(R3-Pad1)*%
X72587500Y-64875000D02*
X73972500Y-66260000D01*
X73972500Y-66260000D02*
X75650000Y-66260000D01*
X74225000Y-68825000D02*
X74225000Y-67685000D01*
X74225000Y-67685000D02*
X75650000Y-66260000D01*
%TO.N,Net-(J2-Pad1)*%
X62625000Y-59125000D02*
X65275000Y-59125000D01*
X65275000Y-59125000D02*
X66375000Y-58025000D01*
%TO.N,Net-(C1-Pad2)*%
X70487500Y-55825000D02*
X70487500Y-57137500D01*
X70625472Y-57275472D02*
X70142204Y-57275472D01*
X70142204Y-57275472D02*
X69800000Y-57617676D01*
X69800000Y-57617676D02*
X69800000Y-58075000D01*
%TO.N,Net-(C4-Pad1)*%
X74562500Y-55825000D02*
X74562500Y-57552500D01*
X74562500Y-57552500D02*
X75650000Y-58640000D01*
%TO.N,Net-(C1-Pad2)*%
X68025000Y-58025000D02*
X69750000Y-58025000D01*
X69750000Y-58025000D02*
X69800000Y-58075000D01*
%TD*%
%TA.AperFunction,Conductor*%
%TO.N,GND*%
G36*
X93383621Y-53903502D02*
G01*
X93430114Y-53957158D01*
X93441500Y-54009500D01*
X93441500Y-70915500D01*
X93421498Y-70983621D01*
X93367842Y-71030114D01*
X93315500Y-71041500D01*
X61059500Y-71041500D01*
X60991379Y-71021498D01*
X60944886Y-70967842D01*
X60933500Y-70915500D01*
X60933500Y-66711695D01*
X61262251Y-66711695D01*
X61262548Y-66716848D01*
X61262548Y-66716851D01*
X61271547Y-66872918D01*
X61275110Y-66934715D01*
X61276247Y-66939761D01*
X61276248Y-66939767D01*
X61293228Y-67015111D01*
X61324222Y-67152639D01*
X61375958Y-67280051D01*
X61390811Y-67316628D01*
X61408266Y-67359616D01*
X61410965Y-67364020D01*
X61513987Y-67532137D01*
X61524987Y-67550088D01*
X61671250Y-67718938D01*
X61725819Y-67764242D01*
X61831556Y-67852026D01*
X61843126Y-67861632D01*
X62036000Y-67974338D01*
X62040825Y-67976180D01*
X62040826Y-67976181D01*
X62046553Y-67978368D01*
X62244692Y-68054030D01*
X62249760Y-68055061D01*
X62249763Y-68055062D01*
X62324838Y-68070336D01*
X62463597Y-68098567D01*
X62468772Y-68098757D01*
X62468774Y-68098757D01*
X62681673Y-68106564D01*
X62681677Y-68106564D01*
X62686837Y-68106753D01*
X62691957Y-68106097D01*
X62691959Y-68106097D01*
X62903288Y-68079025D01*
X62903289Y-68079025D01*
X62908416Y-68078368D01*
X62961610Y-68062409D01*
X63117429Y-68015661D01*
X63117434Y-68015659D01*
X63122384Y-68014174D01*
X63322994Y-67915896D01*
X63504860Y-67786173D01*
X63532804Y-67758327D01*
X63654483Y-67637072D01*
X63663096Y-67628489D01*
X63667587Y-67622240D01*
X63790435Y-67451277D01*
X63793453Y-67447077D01*
X63811186Y-67411198D01*
X63890136Y-67251453D01*
X63890137Y-67251451D01*
X63892430Y-67246811D01*
X63940528Y-67088502D01*
X63955865Y-67038023D01*
X63955865Y-67038021D01*
X63957370Y-67033069D01*
X63986529Y-66811590D01*
X63988156Y-66745000D01*
X63969852Y-66522361D01*
X63915431Y-66305702D01*
X63826354Y-66100840D01*
X63761661Y-66000840D01*
X63707822Y-65917617D01*
X63707820Y-65917614D01*
X63705014Y-65913277D01*
X63554670Y-65748051D01*
X63550619Y-65744852D01*
X63550615Y-65744848D01*
X63383414Y-65612800D01*
X63383410Y-65612798D01*
X63379359Y-65609598D01*
X63338053Y-65586796D01*
X63288084Y-65536364D01*
X63273312Y-65466921D01*
X63298428Y-65400516D01*
X63325780Y-65373909D01*
X63369603Y-65342650D01*
X63504860Y-65246173D01*
X63532804Y-65218327D01*
X63618862Y-65132569D01*
X63663096Y-65088489D01*
X63667587Y-65082240D01*
X63790435Y-64911277D01*
X63793453Y-64907077D01*
X63808272Y-64877094D01*
X63890136Y-64711453D01*
X63890137Y-64711451D01*
X63892430Y-64706811D01*
X63938197Y-64556174D01*
X63955865Y-64498023D01*
X63955865Y-64498021D01*
X63957370Y-64493069D01*
X63986529Y-64271590D01*
X63986710Y-64264180D01*
X63988074Y-64208365D01*
X63988074Y-64208361D01*
X63988156Y-64205000D01*
X63969852Y-63982361D01*
X63915431Y-63765702D01*
X63826354Y-63560840D01*
X63786123Y-63498653D01*
X63707822Y-63377617D01*
X63707820Y-63377614D01*
X63705014Y-63373277D01*
X63554670Y-63208051D01*
X63550619Y-63204852D01*
X63550615Y-63204848D01*
X63383414Y-63072800D01*
X63383410Y-63072798D01*
X63379359Y-63069598D01*
X63337569Y-63046529D01*
X63287598Y-62996097D01*
X63272826Y-62926654D01*
X63297942Y-62860248D01*
X63325294Y-62833641D01*
X63500328Y-62708792D01*
X63508200Y-62702139D01*
X63659052Y-62551812D01*
X63665730Y-62543965D01*
X63790003Y-62371020D01*
X63795313Y-62362183D01*
X63889670Y-62171267D01*
X63893469Y-62161672D01*
X63955377Y-61957910D01*
X63957555Y-61947837D01*
X63958986Y-61936962D01*
X63956775Y-61922778D01*
X63943617Y-61919000D01*
X61308225Y-61919000D01*
X61294694Y-61922973D01*
X61293257Y-61932966D01*
X61323565Y-62067446D01*
X61326645Y-62077275D01*
X61406770Y-62274603D01*
X61411413Y-62283794D01*
X61522694Y-62465388D01*
X61528777Y-62473699D01*
X61668213Y-62634667D01*
X61675580Y-62641883D01*
X61839434Y-62777916D01*
X61847881Y-62783831D01*
X61916969Y-62824203D01*
X61965693Y-62875842D01*
X61978764Y-62945625D01*
X61952033Y-63011396D01*
X61911584Y-63044752D01*
X61898607Y-63051507D01*
X61894474Y-63054610D01*
X61894471Y-63054612D01*
X61724100Y-63182530D01*
X61719965Y-63185635D01*
X61694894Y-63211870D01*
X61595291Y-63316099D01*
X61565629Y-63347138D01*
X61562715Y-63351410D01*
X61562714Y-63351411D01*
X61530282Y-63398955D01*
X61439743Y-63531680D01*
X61345688Y-63734305D01*
X61285989Y-63949570D01*
X61262251Y-64171695D01*
X61262548Y-64176848D01*
X61262548Y-64176851D01*
X61272907Y-64356500D01*
X61275110Y-64394715D01*
X61276247Y-64399761D01*
X61276248Y-64399767D01*
X61285206Y-64439514D01*
X61324222Y-64612639D01*
X61408266Y-64819616D01*
X61459019Y-64902438D01*
X61513987Y-64992137D01*
X61524987Y-65010088D01*
X61671250Y-65178938D01*
X61774281Y-65264476D01*
X61836480Y-65316114D01*
X61843126Y-65321632D01*
X61864870Y-65334338D01*
X61916445Y-65364476D01*
X61965169Y-65416114D01*
X61978240Y-65485897D01*
X61951509Y-65551669D01*
X61911055Y-65585027D01*
X61898607Y-65591507D01*
X61894474Y-65594610D01*
X61894471Y-65594612D01*
X61724100Y-65722530D01*
X61719965Y-65725635D01*
X61701605Y-65744848D01*
X61593310Y-65858172D01*
X61565629Y-65887138D01*
X61562715Y-65891410D01*
X61562714Y-65891411D01*
X61523826Y-65948419D01*
X61439743Y-66071680D01*
X61345688Y-66274305D01*
X61285989Y-66489570D01*
X61262251Y-66711695D01*
X60933500Y-66711695D01*
X60933500Y-60023134D01*
X61266500Y-60023134D01*
X61273255Y-60085316D01*
X61324385Y-60221705D01*
X61411739Y-60338261D01*
X61528295Y-60425615D01*
X61536704Y-60428767D01*
X61536705Y-60428768D01*
X61645960Y-60469726D01*
X61702725Y-60512367D01*
X61727425Y-60578929D01*
X61712218Y-60648278D01*
X61692825Y-60674759D01*
X61569590Y-60803717D01*
X61563104Y-60811727D01*
X61443098Y-60987649D01*
X61438000Y-60996623D01*
X61348338Y-61189783D01*
X61344775Y-61199470D01*
X61289389Y-61399183D01*
X61290912Y-61407607D01*
X61303292Y-61411000D01*
X63943344Y-61411000D01*
X63956875Y-61407027D01*
X63958180Y-61397947D01*
X63916214Y-61230875D01*
X63912894Y-61221124D01*
X63827972Y-61025814D01*
X63823105Y-61016739D01*
X63707426Y-60837926D01*
X63701136Y-60829757D01*
X63557293Y-60671677D01*
X63526241Y-60607831D01*
X63534635Y-60537333D01*
X63579812Y-60482564D01*
X63606256Y-60468895D01*
X63713297Y-60428767D01*
X63721705Y-60425615D01*
X63838261Y-60338261D01*
X63925615Y-60221705D01*
X63976745Y-60085316D01*
X63983500Y-60023134D01*
X63983500Y-59884500D01*
X64003502Y-59816379D01*
X64057158Y-59769886D01*
X64109500Y-59758500D01*
X65196233Y-59758500D01*
X65207416Y-59759027D01*
X65214909Y-59760702D01*
X65222835Y-59760453D01*
X65222836Y-59760453D01*
X65282986Y-59758562D01*
X65286945Y-59758500D01*
X65314856Y-59758500D01*
X65318791Y-59758003D01*
X65318856Y-59757995D01*
X65330693Y-59757062D01*
X65362951Y-59756048D01*
X65366970Y-59755922D01*
X65374889Y-59755673D01*
X65394343Y-59750021D01*
X65413700Y-59746013D01*
X65425930Y-59744468D01*
X65425931Y-59744468D01*
X65433797Y-59743474D01*
X65441168Y-59740555D01*
X65441170Y-59740555D01*
X65474912Y-59727196D01*
X65486142Y-59723351D01*
X65520983Y-59713229D01*
X65520984Y-59713229D01*
X65528593Y-59711018D01*
X65535412Y-59706985D01*
X65535417Y-59706983D01*
X65546028Y-59700707D01*
X65563776Y-59692012D01*
X65582617Y-59684552D01*
X65601850Y-59670579D01*
X65618387Y-59658564D01*
X65628307Y-59652048D01*
X65659535Y-59633580D01*
X65659538Y-59633578D01*
X65666362Y-59629542D01*
X65680683Y-59615221D01*
X65695717Y-59602380D01*
X65712107Y-59590472D01*
X65717157Y-59584368D01*
X65717162Y-59584363D01*
X65740293Y-59556402D01*
X65748283Y-59547621D01*
X66250501Y-59045404D01*
X66312813Y-59011379D01*
X66339596Y-59008500D01*
X66587072Y-59008500D01*
X66590318Y-59008163D01*
X66590322Y-59008163D01*
X66627801Y-59004274D01*
X66691093Y-58997707D01*
X66762616Y-58973845D01*
X66833565Y-58971261D01*
X66891587Y-59004274D01*
X67113428Y-59226116D01*
X67330050Y-59442738D01*
X67337584Y-59451017D01*
X67341697Y-59457498D01*
X67375854Y-59489573D01*
X67391348Y-59504123D01*
X67394190Y-59506878D01*
X67413927Y-59526615D01*
X67417124Y-59529095D01*
X67426144Y-59536798D01*
X67458376Y-59567066D01*
X67465322Y-59570885D01*
X67465325Y-59570887D01*
X67476131Y-59576828D01*
X67492650Y-59587679D01*
X67508656Y-59600094D01*
X67515925Y-59603239D01*
X67515929Y-59603242D01*
X67549234Y-59617654D01*
X67559884Y-59622871D01*
X67598637Y-59644175D01*
X67606312Y-59646146D01*
X67606313Y-59646146D01*
X67618259Y-59649213D01*
X67636964Y-59655617D01*
X67655552Y-59663661D01*
X67663375Y-59664900D01*
X67663385Y-59664903D01*
X67699221Y-59670579D01*
X67710841Y-59672985D01*
X67745986Y-59682008D01*
X67753667Y-59683980D01*
X67773921Y-59683980D01*
X67793631Y-59685531D01*
X67813640Y-59688700D01*
X67821532Y-59687954D01*
X67847164Y-59685531D01*
X67857659Y-59684539D01*
X67869516Y-59683980D01*
X69503000Y-59683980D01*
X69571121Y-59703982D01*
X69617614Y-59757638D01*
X69629000Y-59809980D01*
X69629000Y-59895600D01*
X69608998Y-59963721D01*
X69594851Y-59981852D01*
X69559338Y-60019670D01*
X69556582Y-60022513D01*
X69536845Y-60042250D01*
X69534365Y-60045447D01*
X69526662Y-60054467D01*
X69496394Y-60086699D01*
X69492575Y-60093645D01*
X69492573Y-60093648D01*
X69486632Y-60104454D01*
X69475781Y-60120973D01*
X69463366Y-60136979D01*
X69460221Y-60144248D01*
X69460218Y-60144252D01*
X69445806Y-60177557D01*
X69440589Y-60188207D01*
X69419285Y-60226960D01*
X69417314Y-60234635D01*
X69417314Y-60234636D01*
X69414247Y-60246582D01*
X69407843Y-60265286D01*
X69399799Y-60283875D01*
X69398560Y-60291698D01*
X69398557Y-60291708D01*
X69392881Y-60327544D01*
X69390475Y-60339164D01*
X69382842Y-60368895D01*
X69379480Y-60381990D01*
X69379480Y-60402244D01*
X69377929Y-60421954D01*
X69374760Y-60441963D01*
X69375506Y-60449855D01*
X69378921Y-60485981D01*
X69379480Y-60497839D01*
X69379480Y-64046713D01*
X69378953Y-64057896D01*
X69377278Y-64065389D01*
X69377527Y-64073315D01*
X69377527Y-64073316D01*
X69379418Y-64133466D01*
X69379480Y-64137425D01*
X69379480Y-64165336D01*
X69379977Y-64169270D01*
X69379977Y-64169271D01*
X69379985Y-64169336D01*
X69380918Y-64181173D01*
X69382307Y-64225369D01*
X69387958Y-64244819D01*
X69391967Y-64264180D01*
X69394506Y-64284277D01*
X69397425Y-64291648D01*
X69397425Y-64291650D01*
X69410784Y-64325392D01*
X69414629Y-64336622D01*
X69417638Y-64346978D01*
X69426962Y-64379073D01*
X69430995Y-64385892D01*
X69430997Y-64385897D01*
X69437273Y-64396508D01*
X69445968Y-64414256D01*
X69453428Y-64433097D01*
X69458090Y-64439513D01*
X69458090Y-64439514D01*
X69479416Y-64468867D01*
X69485932Y-64478787D01*
X69502970Y-64507596D01*
X69508438Y-64516842D01*
X69522759Y-64531163D01*
X69535599Y-64546196D01*
X69547508Y-64562587D01*
X69553614Y-64567638D01*
X69581585Y-64590778D01*
X69590364Y-64598768D01*
X69729595Y-64737999D01*
X69763621Y-64800311D01*
X69766500Y-64827094D01*
X69766500Y-65162072D01*
X69766837Y-65165318D01*
X69766837Y-65165322D01*
X69772951Y-65224242D01*
X69777293Y-65266093D01*
X69779474Y-65272629D01*
X69779474Y-65272631D01*
X69795822Y-65321632D01*
X69832346Y-65431107D01*
X69923884Y-65579031D01*
X69929066Y-65584204D01*
X70041816Y-65696758D01*
X70041821Y-65696762D01*
X70046997Y-65701929D01*
X70053227Y-65705769D01*
X70053228Y-65705770D01*
X70179169Y-65783401D01*
X70195080Y-65793209D01*
X70360191Y-65847974D01*
X70367027Y-65848674D01*
X70367030Y-65848675D01*
X70418526Y-65853951D01*
X70462928Y-65858500D01*
X71062072Y-65858500D01*
X71065318Y-65858163D01*
X71065322Y-65858163D01*
X71159235Y-65848419D01*
X71159239Y-65848418D01*
X71166093Y-65847707D01*
X71172629Y-65845526D01*
X71172631Y-65845526D01*
X71321267Y-65795937D01*
X71331107Y-65792654D01*
X71479031Y-65701116D01*
X71484204Y-65695934D01*
X71585747Y-65594214D01*
X71648030Y-65560135D01*
X71718850Y-65565138D01*
X71763937Y-65594059D01*
X71866812Y-65696754D01*
X71866817Y-65696758D01*
X71871997Y-65701929D01*
X71878227Y-65705769D01*
X71878228Y-65705770D01*
X72004169Y-65783401D01*
X72020080Y-65793209D01*
X72185191Y-65847974D01*
X72192027Y-65848674D01*
X72192030Y-65848675D01*
X72243526Y-65853951D01*
X72287928Y-65858500D01*
X72622905Y-65858500D01*
X72691026Y-65878502D01*
X72712001Y-65895405D01*
X73090900Y-66274305D01*
X73468853Y-66652258D01*
X73476387Y-66660537D01*
X73480500Y-66667018D01*
X73524397Y-66708240D01*
X73530151Y-66713643D01*
X73532993Y-66716398D01*
X73552730Y-66736135D01*
X73555927Y-66738615D01*
X73564947Y-66746318D01*
X73597179Y-66776586D01*
X73604125Y-66780405D01*
X73604128Y-66780407D01*
X73614934Y-66786348D01*
X73631453Y-66797199D01*
X73647459Y-66809614D01*
X73654728Y-66812759D01*
X73654732Y-66812762D01*
X73688037Y-66827174D01*
X73698687Y-66832391D01*
X73737440Y-66853695D01*
X73745115Y-66855666D01*
X73745116Y-66855666D01*
X73757062Y-66858733D01*
X73775767Y-66865137D01*
X73794355Y-66873181D01*
X73802178Y-66874420D01*
X73802188Y-66874423D01*
X73838024Y-66880099D01*
X73849639Y-66882504D01*
X73860021Y-66885169D01*
X73921029Y-66921480D01*
X73952722Y-66985010D01*
X73945036Y-67055590D01*
X73917788Y-67096307D01*
X73832747Y-67181348D01*
X73824461Y-67188888D01*
X73817982Y-67193000D01*
X73812557Y-67198777D01*
X73771357Y-67242651D01*
X73768602Y-67245493D01*
X73748865Y-67265230D01*
X73746385Y-67268427D01*
X73738682Y-67277447D01*
X73708414Y-67309679D01*
X73704595Y-67316625D01*
X73704593Y-67316628D01*
X73698652Y-67327434D01*
X73687801Y-67343953D01*
X73675386Y-67359959D01*
X73672241Y-67367228D01*
X73672238Y-67367232D01*
X73657826Y-67400537D01*
X73652609Y-67411187D01*
X73631305Y-67449940D01*
X73629334Y-67457615D01*
X73629334Y-67457616D01*
X73626267Y-67469562D01*
X73619863Y-67488266D01*
X73611819Y-67506855D01*
X73610580Y-67514678D01*
X73610577Y-67514688D01*
X73604901Y-67550524D01*
X73602495Y-67562144D01*
X73591500Y-67604970D01*
X73591500Y-67625224D01*
X73589949Y-67644934D01*
X73586780Y-67664943D01*
X73587526Y-67672835D01*
X73590941Y-67708961D01*
X73591500Y-67720819D01*
X73591500Y-67877301D01*
X73571498Y-67945422D01*
X73531802Y-67984445D01*
X73508469Y-67998884D01*
X73503296Y-68004066D01*
X73390742Y-68116816D01*
X73390738Y-68116821D01*
X73385571Y-68121997D01*
X73381731Y-68128227D01*
X73381730Y-68128228D01*
X73298864Y-68262662D01*
X73294291Y-68270080D01*
X73239526Y-68435191D01*
X73229000Y-68537928D01*
X73229000Y-69112072D01*
X73239793Y-69216093D01*
X73294846Y-69381107D01*
X73386384Y-69529031D01*
X73391566Y-69534204D01*
X73504316Y-69646758D01*
X73504321Y-69646762D01*
X73509497Y-69651929D01*
X73657580Y-69743209D01*
X73822691Y-69797974D01*
X73829527Y-69798674D01*
X73829530Y-69798675D01*
X73881026Y-69803951D01*
X73925428Y-69808500D01*
X74524572Y-69808500D01*
X74527818Y-69808163D01*
X74527822Y-69808163D01*
X74621735Y-69798419D01*
X74621739Y-69798418D01*
X74628593Y-69797707D01*
X74635129Y-69795526D01*
X74635131Y-69795526D01*
X74767895Y-69751232D01*
X74793607Y-69742654D01*
X74941531Y-69651116D01*
X74946704Y-69645934D01*
X75048247Y-69544214D01*
X75110530Y-69510135D01*
X75181350Y-69515138D01*
X75226437Y-69544059D01*
X75329312Y-69646754D01*
X75329317Y-69646758D01*
X75334497Y-69651929D01*
X75482580Y-69743209D01*
X75647691Y-69797974D01*
X75654527Y-69798674D01*
X75654530Y-69798675D01*
X75706026Y-69803951D01*
X75750428Y-69808500D01*
X76085406Y-69808500D01*
X76153527Y-69828502D01*
X76174501Y-69845405D01*
X76370863Y-70041767D01*
X76378407Y-70050057D01*
X76382520Y-70056538D01*
X76388297Y-70061963D01*
X76432187Y-70103178D01*
X76435029Y-70105933D01*
X76454750Y-70125654D01*
X76457945Y-70128132D01*
X76466967Y-70135838D01*
X76499199Y-70166106D01*
X76506148Y-70169926D01*
X76516952Y-70175866D01*
X76533476Y-70186719D01*
X76549479Y-70199133D01*
X76590063Y-70216696D01*
X76600693Y-70221903D01*
X76639460Y-70243215D01*
X76647137Y-70245186D01*
X76647142Y-70245188D01*
X76659078Y-70248252D01*
X76677786Y-70254657D01*
X76696375Y-70262701D01*
X76704200Y-70263940D01*
X76704202Y-70263941D01*
X76740039Y-70269617D01*
X76751660Y-70272024D01*
X76783479Y-70280193D01*
X76794490Y-70283020D01*
X76814751Y-70283020D01*
X76834460Y-70284571D01*
X76854463Y-70287739D01*
X76862355Y-70286993D01*
X76867582Y-70286499D01*
X76898474Y-70283579D01*
X76910331Y-70283020D01*
X82946713Y-70283020D01*
X82957896Y-70283547D01*
X82965389Y-70285222D01*
X82973315Y-70284973D01*
X82973316Y-70284973D01*
X83033466Y-70283082D01*
X83037425Y-70283020D01*
X83065336Y-70283020D01*
X83069271Y-70282523D01*
X83069336Y-70282515D01*
X83081173Y-70281582D01*
X83113431Y-70280568D01*
X83117450Y-70280442D01*
X83125369Y-70280193D01*
X83144823Y-70274541D01*
X83164180Y-70270533D01*
X83176410Y-70268988D01*
X83176411Y-70268988D01*
X83184277Y-70267994D01*
X83191648Y-70265075D01*
X83191650Y-70265075D01*
X83225392Y-70251716D01*
X83236622Y-70247871D01*
X83271463Y-70237749D01*
X83271464Y-70237749D01*
X83279073Y-70235538D01*
X83285892Y-70231505D01*
X83285897Y-70231503D01*
X83296508Y-70225227D01*
X83314256Y-70216532D01*
X83333097Y-70209072D01*
X83353467Y-70194273D01*
X83368867Y-70183084D01*
X83378787Y-70176568D01*
X83410015Y-70158100D01*
X83410018Y-70158098D01*
X83416842Y-70154062D01*
X83431163Y-70139741D01*
X83446197Y-70126900D01*
X83447912Y-70125654D01*
X83462587Y-70114992D01*
X83490778Y-70080915D01*
X83498768Y-70072136D01*
X85200499Y-68370405D01*
X85262811Y-68336379D01*
X85289594Y-68333500D01*
X85674572Y-68333500D01*
X85677818Y-68333163D01*
X85677822Y-68333163D01*
X85771735Y-68323419D01*
X85771739Y-68323418D01*
X85778593Y-68322707D01*
X85785129Y-68320526D01*
X85785131Y-68320526D01*
X85936659Y-68269972D01*
X85943607Y-68267654D01*
X86091531Y-68176116D01*
X86120599Y-68146997D01*
X86209258Y-68058184D01*
X86209262Y-68058179D01*
X86214429Y-68053003D01*
X86229184Y-68029066D01*
X86301869Y-67911150D01*
X86301870Y-67911148D01*
X86305709Y-67904920D01*
X86360474Y-67739809D01*
X86362613Y-67718938D01*
X86368144Y-67664943D01*
X86371000Y-67637072D01*
X86371000Y-67062928D01*
X86370664Y-67059685D01*
X86370663Y-67059675D01*
X86365698Y-67011823D01*
X86378563Y-66942001D01*
X86427135Y-66890220D01*
X86495991Y-66872918D01*
X86517224Y-66875574D01*
X86548052Y-66882127D01*
X86548055Y-66882127D01*
X86554513Y-66883500D01*
X86610405Y-66883500D01*
X86678526Y-66903502D01*
X86699500Y-66920405D01*
X86816348Y-67037253D01*
X86823888Y-67045539D01*
X86828000Y-67052018D01*
X86833777Y-67057443D01*
X86877651Y-67098643D01*
X86880493Y-67101398D01*
X86900230Y-67121135D01*
X86903427Y-67123615D01*
X86912447Y-67131318D01*
X86944679Y-67161586D01*
X86951625Y-67165405D01*
X86951628Y-67165407D01*
X86962434Y-67171348D01*
X86978953Y-67182199D01*
X86994959Y-67194614D01*
X87002228Y-67197759D01*
X87002232Y-67197762D01*
X87035537Y-67212174D01*
X87046187Y-67217391D01*
X87084940Y-67238695D01*
X87092615Y-67240666D01*
X87092616Y-67240666D01*
X87104562Y-67243733D01*
X87123267Y-67250137D01*
X87141855Y-67258181D01*
X87149678Y-67259420D01*
X87149688Y-67259423D01*
X87185524Y-67265099D01*
X87197144Y-67267505D01*
X87219015Y-67273120D01*
X87239970Y-67278500D01*
X87260224Y-67278500D01*
X87279934Y-67280051D01*
X87299943Y-67283220D01*
X87307835Y-67282474D01*
X87343961Y-67279059D01*
X87355819Y-67278500D01*
X90424274Y-67278500D01*
X90492395Y-67298502D01*
X90531707Y-67338665D01*
X90599987Y-67450088D01*
X90746250Y-67618938D01*
X90918126Y-67761632D01*
X91111000Y-67874338D01*
X91115825Y-67876180D01*
X91115826Y-67876181D01*
X91146222Y-67887788D01*
X91319692Y-67954030D01*
X91324760Y-67955061D01*
X91324763Y-67955062D01*
X91410489Y-67972503D01*
X91538597Y-67998567D01*
X91543772Y-67998757D01*
X91543774Y-67998757D01*
X91756673Y-68006564D01*
X91756677Y-68006564D01*
X91761837Y-68006753D01*
X91766957Y-68006097D01*
X91766959Y-68006097D01*
X91978288Y-67979025D01*
X91978289Y-67979025D01*
X91983416Y-67978368D01*
X92005538Y-67971731D01*
X92192429Y-67915661D01*
X92192434Y-67915659D01*
X92197384Y-67914174D01*
X92397994Y-67815896D01*
X92579860Y-67686173D01*
X92601165Y-67664943D01*
X92734435Y-67532137D01*
X92738096Y-67528489D01*
X92799527Y-67442999D01*
X92865435Y-67351277D01*
X92868453Y-67347077D01*
X92872611Y-67338665D01*
X92965136Y-67151453D01*
X92965137Y-67151451D01*
X92967430Y-67146811D01*
X93032370Y-66933069D01*
X93061529Y-66711590D01*
X93061652Y-66706562D01*
X93063074Y-66648365D01*
X93063074Y-66648361D01*
X93063156Y-66645000D01*
X93044852Y-66422361D01*
X92990431Y-66205702D01*
X92901354Y-66000840D01*
X92827797Y-65887138D01*
X92782822Y-65817617D01*
X92782820Y-65817614D01*
X92780014Y-65813277D01*
X92629670Y-65648051D01*
X92625619Y-65644852D01*
X92625615Y-65644848D01*
X92458414Y-65512800D01*
X92458410Y-65512798D01*
X92454359Y-65509598D01*
X92413053Y-65486796D01*
X92363084Y-65436364D01*
X92348312Y-65366921D01*
X92373428Y-65300516D01*
X92400780Y-65273909D01*
X92444773Y-65242529D01*
X92579860Y-65146173D01*
X92738096Y-64988489D01*
X92750244Y-64971584D01*
X92865435Y-64811277D01*
X92868453Y-64807077D01*
X92902594Y-64737999D01*
X92965136Y-64611453D01*
X92965137Y-64611451D01*
X92967430Y-64606811D01*
X93032370Y-64393069D01*
X93061529Y-64171590D01*
X93062178Y-64145030D01*
X93063074Y-64108365D01*
X93063074Y-64108361D01*
X93063156Y-64105000D01*
X93044852Y-63882361D01*
X92990431Y-63665702D01*
X92901354Y-63460840D01*
X92847515Y-63377617D01*
X92782822Y-63277617D01*
X92782820Y-63277614D01*
X92780014Y-63273277D01*
X92629670Y-63108051D01*
X92625619Y-63104852D01*
X92625615Y-63104848D01*
X92458414Y-62972800D01*
X92458410Y-62972798D01*
X92454359Y-62969598D01*
X92444929Y-62964392D01*
X92427212Y-62954612D01*
X92412569Y-62946529D01*
X92362598Y-62896097D01*
X92347826Y-62826654D01*
X92372942Y-62760248D01*
X92400294Y-62733641D01*
X92575328Y-62608792D01*
X92583200Y-62602139D01*
X92734052Y-62451812D01*
X92740730Y-62443965D01*
X92865003Y-62271020D01*
X92870313Y-62262183D01*
X92964670Y-62071267D01*
X92968469Y-62061672D01*
X93030377Y-61857910D01*
X93032555Y-61847837D01*
X93033986Y-61836962D01*
X93031775Y-61822778D01*
X93018617Y-61819000D01*
X90383225Y-61819000D01*
X90369694Y-61822973D01*
X90368257Y-61832966D01*
X90398565Y-61967446D01*
X90401645Y-61977275D01*
X90481770Y-62174603D01*
X90486413Y-62183794D01*
X90597694Y-62365388D01*
X90603777Y-62373699D01*
X90743213Y-62534667D01*
X90750580Y-62541883D01*
X90914434Y-62677916D01*
X90922881Y-62683831D01*
X90991969Y-62724203D01*
X91040693Y-62775842D01*
X91053764Y-62845625D01*
X91027033Y-62911396D01*
X90986584Y-62944752D01*
X90973607Y-62951507D01*
X90969474Y-62954610D01*
X90969471Y-62954612D01*
X90799100Y-63082530D01*
X90794965Y-63085635D01*
X90640629Y-63247138D01*
X90637715Y-63251410D01*
X90637714Y-63251411D01*
X90615107Y-63284552D01*
X90514743Y-63431680D01*
X90470311Y-63527401D01*
X90425852Y-63623181D01*
X90420688Y-63634305D01*
X90360989Y-63849570D01*
X90337251Y-64071695D01*
X90337548Y-64076848D01*
X90337548Y-64076851D01*
X90345655Y-64217450D01*
X90350110Y-64294715D01*
X90351247Y-64299761D01*
X90351248Y-64299767D01*
X90361888Y-64346978D01*
X90399222Y-64512639D01*
X90483266Y-64719616D01*
X90599987Y-64910088D01*
X90746250Y-65078938D01*
X90918126Y-65221632D01*
X90953887Y-65242529D01*
X90991445Y-65264476D01*
X91040169Y-65316114D01*
X91053240Y-65385897D01*
X91026509Y-65451669D01*
X90986055Y-65485027D01*
X90973607Y-65491507D01*
X90969474Y-65494610D01*
X90969471Y-65494612D01*
X90799100Y-65622530D01*
X90794965Y-65625635D01*
X90640629Y-65787138D01*
X90637715Y-65791410D01*
X90637714Y-65791411D01*
X90525095Y-65956504D01*
X90470184Y-66001507D01*
X90421007Y-66011500D01*
X87680791Y-66011500D01*
X87612670Y-65991498D01*
X87566177Y-65937842D01*
X87555481Y-65898670D01*
X87555150Y-65895513D01*
X87546963Y-65817617D01*
X87544232Y-65791635D01*
X87544232Y-65791633D01*
X87543542Y-65785072D01*
X87484527Y-65603444D01*
X87459523Y-65560135D01*
X87445798Y-65536364D01*
X87389040Y-65438056D01*
X87369284Y-65416114D01*
X87265675Y-65301045D01*
X87265674Y-65301044D01*
X87261253Y-65296134D01*
X87106752Y-65183882D01*
X87100724Y-65181198D01*
X87100722Y-65181197D01*
X86938319Y-65108891D01*
X86938318Y-65108891D01*
X86932288Y-65106206D01*
X86838887Y-65086353D01*
X86751944Y-65067872D01*
X86751939Y-65067872D01*
X86745487Y-65066500D01*
X86554513Y-65066500D01*
X86548061Y-65067872D01*
X86548056Y-65067872D01*
X86460697Y-65086441D01*
X86389906Y-65081039D01*
X86333273Y-65038222D01*
X86308780Y-64971584D01*
X86308500Y-64963194D01*
X86308500Y-64877094D01*
X86328502Y-64808973D01*
X86345405Y-64787999D01*
X87842247Y-63291157D01*
X87850537Y-63283613D01*
X87857018Y-63279500D01*
X87903659Y-63229832D01*
X87906413Y-63226991D01*
X87926134Y-63207270D01*
X87928612Y-63204075D01*
X87936318Y-63195053D01*
X87961158Y-63168601D01*
X87966586Y-63162821D01*
X87976346Y-63145068D01*
X87987199Y-63128545D01*
X87994753Y-63118806D01*
X87999613Y-63112541D01*
X88017176Y-63071957D01*
X88022383Y-63061327D01*
X88043695Y-63022560D01*
X88045666Y-63014883D01*
X88045668Y-63014878D01*
X88048732Y-63002942D01*
X88055138Y-62984230D01*
X88060033Y-62972919D01*
X88063181Y-62965645D01*
X88064421Y-62957817D01*
X88064423Y-62957810D01*
X88070099Y-62921976D01*
X88072505Y-62910356D01*
X88081528Y-62875211D01*
X88081528Y-62875210D01*
X88083500Y-62867530D01*
X88083500Y-62847276D01*
X88085051Y-62827565D01*
X88085584Y-62824203D01*
X88088220Y-62807557D01*
X88084059Y-62763538D01*
X88083500Y-62751681D01*
X88083500Y-59923134D01*
X90341500Y-59923134D01*
X90348255Y-59985316D01*
X90399385Y-60121705D01*
X90486739Y-60238261D01*
X90603295Y-60325615D01*
X90611704Y-60328767D01*
X90611705Y-60328768D01*
X90720960Y-60369726D01*
X90777725Y-60412367D01*
X90802425Y-60478929D01*
X90787218Y-60548278D01*
X90767825Y-60574759D01*
X90644590Y-60703717D01*
X90638104Y-60711727D01*
X90518098Y-60887649D01*
X90513000Y-60896623D01*
X90423338Y-61089783D01*
X90419775Y-61099470D01*
X90364389Y-61299183D01*
X90365912Y-61307607D01*
X90378292Y-61311000D01*
X93018344Y-61311000D01*
X93031875Y-61307027D01*
X93033180Y-61297947D01*
X92991214Y-61130875D01*
X92987894Y-61121124D01*
X92902972Y-60925814D01*
X92898105Y-60916739D01*
X92782426Y-60737926D01*
X92776136Y-60729757D01*
X92632293Y-60571677D01*
X92601241Y-60507831D01*
X92609635Y-60437333D01*
X92654812Y-60382564D01*
X92681256Y-60368895D01*
X92788297Y-60328767D01*
X92796705Y-60325615D01*
X92913261Y-60238261D01*
X93000615Y-60121705D01*
X93051745Y-59985316D01*
X93058500Y-59923134D01*
X93058500Y-58126866D01*
X93051745Y-58064684D01*
X93000615Y-57928295D01*
X92913261Y-57811739D01*
X92796705Y-57724385D01*
X92660316Y-57673255D01*
X92598134Y-57666500D01*
X90801866Y-57666500D01*
X90739684Y-57673255D01*
X90603295Y-57724385D01*
X90486739Y-57811739D01*
X90399385Y-57928295D01*
X90348255Y-58064684D01*
X90341500Y-58126866D01*
X90341500Y-59923134D01*
X88083500Y-59923134D01*
X88083500Y-58516267D01*
X88084027Y-58505084D01*
X88085702Y-58497591D01*
X88083562Y-58429500D01*
X88083500Y-58425543D01*
X88083500Y-58397644D01*
X88082996Y-58393653D01*
X88082063Y-58381811D01*
X88081551Y-58365500D01*
X88080674Y-58337611D01*
X88078462Y-58329997D01*
X88078461Y-58329992D01*
X88075023Y-58318159D01*
X88071012Y-58298795D01*
X88069467Y-58286564D01*
X88068474Y-58278703D01*
X88065557Y-58271336D01*
X88065556Y-58271331D01*
X88052198Y-58237592D01*
X88048354Y-58226365D01*
X88044353Y-58212595D01*
X88036018Y-58183907D01*
X88031697Y-58176600D01*
X88025707Y-58166472D01*
X88017012Y-58148724D01*
X88009552Y-58129883D01*
X87983564Y-58094113D01*
X87977048Y-58084193D01*
X87958580Y-58052965D01*
X87958578Y-58052962D01*
X87954542Y-58046138D01*
X87940221Y-58031817D01*
X87927380Y-58016783D01*
X87920131Y-58006806D01*
X87915472Y-58000393D01*
X87881395Y-57972202D01*
X87872616Y-57964212D01*
X86095405Y-56187000D01*
X86061379Y-56124688D01*
X86058500Y-56097905D01*
X86058500Y-55762928D01*
X86054457Y-55723958D01*
X86048419Y-55665765D01*
X86048418Y-55665761D01*
X86047707Y-55658907D01*
X85992654Y-55493893D01*
X85901116Y-55345969D01*
X85886062Y-55330941D01*
X85783184Y-55228242D01*
X85783179Y-55228238D01*
X85778003Y-55223071D01*
X85629920Y-55131791D01*
X85464809Y-55077026D01*
X85457973Y-55076326D01*
X85457970Y-55076325D01*
X85406474Y-55071049D01*
X85362072Y-55066500D01*
X84762928Y-55066500D01*
X84759682Y-55066837D01*
X84759678Y-55066837D01*
X84665765Y-55076581D01*
X84665761Y-55076582D01*
X84658907Y-55077293D01*
X84652371Y-55079474D01*
X84652369Y-55079474D01*
X84581170Y-55103228D01*
X84493893Y-55132346D01*
X84345969Y-55223884D01*
X84340796Y-55229066D01*
X84239253Y-55330786D01*
X84176970Y-55364865D01*
X84106150Y-55359862D01*
X84061063Y-55330941D01*
X83958188Y-55228246D01*
X83958183Y-55228242D01*
X83953003Y-55223071D01*
X83804920Y-55131791D01*
X83639809Y-55077026D01*
X83632973Y-55076326D01*
X83632970Y-55076325D01*
X83581474Y-55071049D01*
X83537072Y-55066500D01*
X82937928Y-55066500D01*
X82934682Y-55066837D01*
X82934678Y-55066837D01*
X82840765Y-55076581D01*
X82840761Y-55076582D01*
X82833907Y-55077293D01*
X82827371Y-55079474D01*
X82827369Y-55079474D01*
X82756170Y-55103228D01*
X82668893Y-55132346D01*
X82520969Y-55223884D01*
X82515796Y-55229066D01*
X82403242Y-55341816D01*
X82403238Y-55341821D01*
X82398071Y-55346997D01*
X82394231Y-55353227D01*
X82394230Y-55353228D01*
X82311364Y-55487662D01*
X82306791Y-55495080D01*
X82252026Y-55660191D01*
X82251326Y-55667027D01*
X82251325Y-55667030D01*
X82250101Y-55678982D01*
X82241500Y-55762928D01*
X82241500Y-56337072D01*
X82241837Y-56340318D01*
X82241837Y-56340322D01*
X82244122Y-56362338D01*
X82252293Y-56441093D01*
X82254474Y-56447629D01*
X82254474Y-56447631D01*
X82281631Y-56529031D01*
X82307346Y-56606107D01*
X82398884Y-56754031D01*
X82404066Y-56759204D01*
X82516816Y-56871758D01*
X82516821Y-56871762D01*
X82521997Y-56876929D01*
X82528227Y-56880769D01*
X82528228Y-56880770D01*
X82594116Y-56921384D01*
X82641609Y-56974156D01*
X82654000Y-57028644D01*
X82654000Y-57452301D01*
X82633998Y-57520422D01*
X82594302Y-57559445D01*
X82570969Y-57573884D01*
X82565796Y-57579066D01*
X82453242Y-57691816D01*
X82453238Y-57691821D01*
X82448071Y-57696997D01*
X82444231Y-57703227D01*
X82444230Y-57703228D01*
X82437057Y-57714865D01*
X82356791Y-57845080D01*
X82354486Y-57852028D01*
X82354486Y-57852029D01*
X82331885Y-57920168D01*
X82291454Y-57978528D01*
X82225890Y-58005764D01*
X82212292Y-58006500D01*
X81924950Y-58006500D01*
X81856829Y-57986498D01*
X81843729Y-57975941D01*
X81843675Y-57976011D01*
X81837415Y-57971155D01*
X81831807Y-57965547D01*
X81824983Y-57961511D01*
X81824980Y-57961509D01*
X81695427Y-57884892D01*
X81695428Y-57884892D01*
X81688601Y-57880855D01*
X81680990Y-57878644D01*
X81680988Y-57878643D01*
X81589380Y-57852029D01*
X81528831Y-57834438D01*
X81522426Y-57833934D01*
X81522421Y-57833933D01*
X81493958Y-57831693D01*
X81493950Y-57831693D01*
X81491502Y-57831500D01*
X79708498Y-57831500D01*
X79706050Y-57831693D01*
X79706042Y-57831693D01*
X79677579Y-57833933D01*
X79677574Y-57833934D01*
X79671169Y-57834438D01*
X79610620Y-57852029D01*
X79519012Y-57878643D01*
X79519010Y-57878644D01*
X79511399Y-57880855D01*
X79504572Y-57884892D01*
X79504573Y-57884892D01*
X79375020Y-57961509D01*
X79375017Y-57961511D01*
X79368193Y-57965547D01*
X79250547Y-58083193D01*
X79246511Y-58090017D01*
X79246509Y-58090020D01*
X79222698Y-58130283D01*
X79165855Y-58226399D01*
X79163644Y-58234010D01*
X79163643Y-58234012D01*
X79152801Y-58271331D01*
X79119438Y-58386169D01*
X79118934Y-58392574D01*
X79118933Y-58392579D01*
X79116945Y-58417842D01*
X79116500Y-58423498D01*
X79116500Y-58856502D01*
X79119438Y-58893831D01*
X79138996Y-58961150D01*
X79163474Y-59045404D01*
X79165855Y-59053601D01*
X79250547Y-59196807D01*
X79253229Y-59199489D01*
X79278502Y-59263861D01*
X79264600Y-59333484D01*
X79254428Y-59349312D01*
X79250547Y-59353193D01*
X79165855Y-59496399D01*
X79163644Y-59504010D01*
X79163643Y-59504012D01*
X79150974Y-59547621D01*
X79119438Y-59656169D01*
X79118934Y-59662574D01*
X79118933Y-59662579D01*
X79116693Y-59691042D01*
X79116500Y-59693498D01*
X79116500Y-59746440D01*
X79096498Y-59814561D01*
X79042842Y-59861054D01*
X79031918Y-59862625D01*
X79082514Y-59892482D01*
X79114444Y-59955893D01*
X79116500Y-59978560D01*
X79116500Y-60126502D01*
X79116693Y-60128950D01*
X79116693Y-60128958D01*
X79117325Y-60136979D01*
X79119438Y-60163831D01*
X79165855Y-60323601D01*
X79174525Y-60338261D01*
X79240522Y-60449855D01*
X79250547Y-60466807D01*
X79253487Y-60469747D01*
X79278820Y-60534266D01*
X79264921Y-60603889D01*
X79252874Y-60622636D01*
X79246910Y-60630324D01*
X79170352Y-60759779D01*
X79164107Y-60774210D01*
X79121731Y-60920065D01*
X79119430Y-60932667D01*
X79117193Y-60961084D01*
X79117000Y-60966014D01*
X79117000Y-61045020D01*
X79096998Y-61113141D01*
X79043342Y-61159634D01*
X78991000Y-61171020D01*
X77258999Y-61171020D01*
X77190878Y-61151018D01*
X77144385Y-61097362D01*
X77132999Y-61045020D01*
X77132999Y-61040096D01*
X77153001Y-60971975D01*
X77169904Y-60951000D01*
X77341778Y-60779127D01*
X77350057Y-60771593D01*
X77356538Y-60767480D01*
X77403165Y-60717827D01*
X77405919Y-60714986D01*
X77417902Y-60703003D01*
X77480214Y-60668977D01*
X77551029Y-60674042D01*
X77558232Y-60676985D01*
X77680212Y-60731294D01*
X77773612Y-60751147D01*
X77860556Y-60769628D01*
X77860561Y-60769628D01*
X77867013Y-60771000D01*
X78057987Y-60771000D01*
X78064439Y-60769628D01*
X78064444Y-60769628D01*
X78151388Y-60751147D01*
X78244788Y-60731294D01*
X78273524Y-60718500D01*
X78413222Y-60656303D01*
X78413224Y-60656302D01*
X78419252Y-60653618D01*
X78573753Y-60541366D01*
X78578175Y-60536455D01*
X78697121Y-60404352D01*
X78697122Y-60404351D01*
X78701540Y-60399444D01*
X78797027Y-60234056D01*
X78856042Y-60052428D01*
X78857407Y-60039446D01*
X78865190Y-59965390D01*
X78892203Y-59899733D01*
X78948743Y-59860277D01*
X78907988Y-59841664D01*
X78869604Y-59781938D01*
X78865190Y-59759610D01*
X78856732Y-59679135D01*
X78856732Y-59679133D01*
X78856042Y-59672572D01*
X78797027Y-59490944D01*
X78701540Y-59325556D01*
X78683410Y-59305420D01*
X78578175Y-59188545D01*
X78578174Y-59188544D01*
X78573753Y-59183634D01*
X78560439Y-59173961D01*
X78517086Y-59117740D01*
X78508500Y-59072025D01*
X78508500Y-57109232D01*
X78528502Y-57041111D01*
X78560439Y-57007296D01*
X78614742Y-56967842D01*
X78661253Y-56934050D01*
X78672658Y-56921384D01*
X78784621Y-56797036D01*
X78784622Y-56797035D01*
X78789040Y-56792128D01*
X78857676Y-56673247D01*
X78881223Y-56632463D01*
X78881224Y-56632462D01*
X78884527Y-56626740D01*
X78943542Y-56445112D01*
X78951000Y-56374159D01*
X78962814Y-56261749D01*
X78963504Y-56255184D01*
X78952459Y-56150095D01*
X78944232Y-56071819D01*
X78944232Y-56071817D01*
X78943542Y-56065256D01*
X78884527Y-55883628D01*
X78789040Y-55718240D01*
X78742931Y-55667030D01*
X78665675Y-55581229D01*
X78665674Y-55581228D01*
X78661253Y-55576318D01*
X78506752Y-55464066D01*
X78500724Y-55461382D01*
X78500722Y-55461381D01*
X78338319Y-55389075D01*
X78338318Y-55389075D01*
X78332288Y-55386390D01*
X78238888Y-55366537D01*
X78151944Y-55348056D01*
X78151939Y-55348056D01*
X78145487Y-55346684D01*
X78089595Y-55346684D01*
X78021474Y-55326682D01*
X78000499Y-55309779D01*
X77669787Y-54979066D01*
X77323943Y-54633222D01*
X77316409Y-54624943D01*
X77312296Y-54618462D01*
X77262644Y-54571836D01*
X77259803Y-54569082D01*
X77240066Y-54549345D01*
X77236869Y-54546865D01*
X77227847Y-54539160D01*
X77214418Y-54526549D01*
X77195617Y-54508894D01*
X77188671Y-54505075D01*
X77188668Y-54505073D01*
X77177862Y-54499132D01*
X77161343Y-54488281D01*
X77160879Y-54487921D01*
X77145337Y-54475866D01*
X77138068Y-54472721D01*
X77138064Y-54472718D01*
X77104759Y-54458306D01*
X77094109Y-54453089D01*
X77055356Y-54431785D01*
X77035733Y-54426747D01*
X77017030Y-54420343D01*
X77005716Y-54415447D01*
X77005715Y-54415447D01*
X76998441Y-54412299D01*
X76990618Y-54411060D01*
X76990608Y-54411057D01*
X76954772Y-54405381D01*
X76943152Y-54402975D01*
X76908007Y-54393952D01*
X76908006Y-54393952D01*
X76900326Y-54391980D01*
X76880072Y-54391980D01*
X76860361Y-54390429D01*
X76848182Y-54388500D01*
X76840353Y-54387260D01*
X76811082Y-54390027D01*
X76796335Y-54391421D01*
X76784477Y-54391980D01*
X73190787Y-54391980D01*
X73179604Y-54391453D01*
X73172111Y-54389778D01*
X73164185Y-54390027D01*
X73164184Y-54390027D01*
X73104034Y-54391918D01*
X73100075Y-54391980D01*
X73072164Y-54391980D01*
X73068230Y-54392477D01*
X73068229Y-54392477D01*
X73068164Y-54392485D01*
X73056327Y-54393418D01*
X73024069Y-54394432D01*
X73020050Y-54394558D01*
X73012131Y-54394807D01*
X72992677Y-54400459D01*
X72973320Y-54404467D01*
X72961090Y-54406012D01*
X72961089Y-54406012D01*
X72953223Y-54407006D01*
X72945852Y-54409925D01*
X72945850Y-54409925D01*
X72912108Y-54423284D01*
X72900878Y-54427129D01*
X72866037Y-54437251D01*
X72866036Y-54437251D01*
X72858427Y-54439462D01*
X72851608Y-54443495D01*
X72851603Y-54443497D01*
X72840992Y-54449773D01*
X72823244Y-54458468D01*
X72804403Y-54465928D01*
X72797988Y-54470589D01*
X72797986Y-54470590D01*
X72768633Y-54491916D01*
X72758713Y-54498432D01*
X72727485Y-54516900D01*
X72727482Y-54516902D01*
X72720658Y-54520938D01*
X72706337Y-54535259D01*
X72691304Y-54548099D01*
X72674913Y-54560008D01*
X72669862Y-54566113D01*
X72669857Y-54566118D01*
X72646726Y-54594078D01*
X72638739Y-54602856D01*
X72437001Y-54804595D01*
X72374689Y-54838620D01*
X72347905Y-54841500D01*
X72012928Y-54841500D01*
X72009682Y-54841837D01*
X72009678Y-54841837D01*
X71915765Y-54851581D01*
X71915761Y-54851582D01*
X71908907Y-54852293D01*
X71902371Y-54854474D01*
X71902369Y-54854474D01*
X71820913Y-54881650D01*
X71749964Y-54884234D01*
X71691942Y-54851221D01*
X71473948Y-54633227D01*
X71466408Y-54624941D01*
X71462296Y-54618462D01*
X71436330Y-54594078D01*
X71412645Y-54571837D01*
X71409803Y-54569082D01*
X71390066Y-54549345D01*
X71386869Y-54546865D01*
X71377847Y-54539160D01*
X71364418Y-54526549D01*
X71345617Y-54508894D01*
X71338671Y-54505075D01*
X71338668Y-54505073D01*
X71327862Y-54499132D01*
X71311343Y-54488281D01*
X71310879Y-54487921D01*
X71295337Y-54475866D01*
X71288068Y-54472721D01*
X71288064Y-54472718D01*
X71254759Y-54458306D01*
X71244109Y-54453089D01*
X71205356Y-54431785D01*
X71185733Y-54426747D01*
X71167030Y-54420343D01*
X71155716Y-54415447D01*
X71155715Y-54415447D01*
X71148441Y-54412299D01*
X71140618Y-54411060D01*
X71140608Y-54411057D01*
X71104772Y-54405381D01*
X71093152Y-54402975D01*
X71058007Y-54393952D01*
X71058006Y-54393952D01*
X71050326Y-54391980D01*
X71030072Y-54391980D01*
X71010361Y-54390429D01*
X70998182Y-54388500D01*
X70990353Y-54387260D01*
X70961082Y-54390027D01*
X70946335Y-54391421D01*
X70934477Y-54391980D01*
X69078288Y-54391980D01*
X69067105Y-54391453D01*
X69059612Y-54389778D01*
X69051686Y-54390027D01*
X69051685Y-54390027D01*
X68991522Y-54391918D01*
X68987564Y-54391980D01*
X68959664Y-54391980D01*
X68955674Y-54392484D01*
X68943840Y-54393416D01*
X68899631Y-54394806D01*
X68892015Y-54397019D01*
X68892013Y-54397019D01*
X68880172Y-54400459D01*
X68860813Y-54404468D01*
X68859503Y-54404634D01*
X68840723Y-54407006D01*
X68833357Y-54409922D01*
X68833351Y-54409924D01*
X68799618Y-54423280D01*
X68788388Y-54427125D01*
X68772348Y-54431785D01*
X68745927Y-54439461D01*
X68739104Y-54443496D01*
X68728486Y-54449775D01*
X68710733Y-54458472D01*
X68703088Y-54461499D01*
X68691903Y-54465928D01*
X68678225Y-54475866D01*
X68656132Y-54491917D01*
X68646215Y-54498431D01*
X68608158Y-54520938D01*
X68593837Y-54535259D01*
X68578804Y-54548099D01*
X68562413Y-54560008D01*
X68557362Y-54566113D01*
X68557357Y-54566118D01*
X68534226Y-54594078D01*
X68526239Y-54602856D01*
X68349501Y-54779595D01*
X68287189Y-54813620D01*
X68260405Y-54816500D01*
X67925428Y-54816500D01*
X67922182Y-54816837D01*
X67922178Y-54816837D01*
X67828265Y-54826581D01*
X67828261Y-54826582D01*
X67821407Y-54827293D01*
X67814871Y-54829474D01*
X67814869Y-54829474D01*
X67682105Y-54873768D01*
X67656393Y-54882346D01*
X67508469Y-54973884D01*
X67503296Y-54979066D01*
X67401753Y-55080786D01*
X67339470Y-55114865D01*
X67268650Y-55109862D01*
X67223563Y-55080941D01*
X67120688Y-54978246D01*
X67120683Y-54978242D01*
X67115503Y-54973071D01*
X66967420Y-54881791D01*
X66802309Y-54827026D01*
X66795473Y-54826326D01*
X66795470Y-54826325D01*
X66743974Y-54821049D01*
X66699572Y-54816500D01*
X66100428Y-54816500D01*
X66097182Y-54816837D01*
X66097178Y-54816837D01*
X66003265Y-54826581D01*
X66003261Y-54826582D01*
X65996407Y-54827293D01*
X65989871Y-54829474D01*
X65989869Y-54829474D01*
X65857105Y-54873768D01*
X65831393Y-54882346D01*
X65683469Y-54973884D01*
X65678296Y-54979066D01*
X65565742Y-55091816D01*
X65565738Y-55091821D01*
X65560571Y-55096997D01*
X65556731Y-55103227D01*
X65556730Y-55103228D01*
X65479668Y-55228246D01*
X65469291Y-55245080D01*
X65414526Y-55410191D01*
X65404000Y-55512928D01*
X65404000Y-56087072D01*
X65414793Y-56191093D01*
X65416974Y-56197629D01*
X65416974Y-56197631D01*
X65425315Y-56222631D01*
X65469846Y-56356107D01*
X65561384Y-56504031D01*
X65566566Y-56509204D01*
X65679316Y-56621758D01*
X65679321Y-56621762D01*
X65684497Y-56626929D01*
X65690727Y-56630769D01*
X65690728Y-56630770D01*
X65797354Y-56696495D01*
X65832580Y-56718209D01*
X65997691Y-56772974D01*
X66004527Y-56773674D01*
X66004530Y-56773675D01*
X66046863Y-56778012D01*
X66100428Y-56783500D01*
X66340020Y-56783500D01*
X66408141Y-56803502D01*
X66454634Y-56857158D01*
X66466020Y-56909500D01*
X66466020Y-56915500D01*
X66446018Y-56983621D01*
X66392362Y-57030114D01*
X66340020Y-57041500D01*
X65987928Y-57041500D01*
X65984682Y-57041837D01*
X65984678Y-57041837D01*
X65890765Y-57051581D01*
X65890761Y-57051582D01*
X65883907Y-57052293D01*
X65877371Y-57054474D01*
X65877369Y-57054474D01*
X65824733Y-57072035D01*
X65718893Y-57107346D01*
X65570969Y-57198884D01*
X65565796Y-57204066D01*
X65453242Y-57316816D01*
X65453238Y-57316821D01*
X65448071Y-57321997D01*
X65444231Y-57328227D01*
X65444230Y-57328228D01*
X65366720Y-57453973D01*
X65356791Y-57470080D01*
X65302026Y-57635191D01*
X65301326Y-57642027D01*
X65301325Y-57642030D01*
X65297339Y-57680941D01*
X65291500Y-57737928D01*
X65291500Y-58160405D01*
X65271498Y-58228526D01*
X65254595Y-58249500D01*
X65049500Y-58454595D01*
X64987188Y-58488621D01*
X64960405Y-58491500D01*
X64109500Y-58491500D01*
X64041379Y-58471498D01*
X63994886Y-58417842D01*
X63983500Y-58365500D01*
X63983500Y-58226866D01*
X63976745Y-58164684D01*
X63925615Y-58028295D01*
X63838261Y-57911739D01*
X63721705Y-57824385D01*
X63585316Y-57773255D01*
X63523134Y-57766500D01*
X61726866Y-57766500D01*
X61664684Y-57773255D01*
X61528295Y-57824385D01*
X61411739Y-57911739D01*
X61324385Y-58028295D01*
X61273255Y-58164684D01*
X61266500Y-58226866D01*
X61266500Y-60023134D01*
X60933500Y-60023134D01*
X60933500Y-54009500D01*
X60953502Y-53941379D01*
X61007158Y-53894886D01*
X61059500Y-53883500D01*
X93315500Y-53883500D01*
X93383621Y-53903502D01*
G37*
%TD.AperFunction*%
%TA.AperFunction,Conductor*%
G36*
X86773917Y-62286368D02*
G01*
X86811729Y-62346457D01*
X86816500Y-62380801D01*
X86816500Y-62472905D01*
X86796498Y-62541026D01*
X86779595Y-62562000D01*
X86406164Y-62935431D01*
X86343852Y-62969457D01*
X86273037Y-62964392D01*
X86216201Y-62921845D01*
X86212678Y-62914807D01*
X86202135Y-62905671D01*
X86194452Y-62904000D01*
X85434615Y-62904000D01*
X85419376Y-62908475D01*
X85418171Y-62909865D01*
X85416500Y-62917548D01*
X85416500Y-63614885D01*
X85420975Y-63630124D01*
X85422365Y-63631329D01*
X85433348Y-63633718D01*
X85495661Y-63667743D01*
X85529686Y-63730055D01*
X85524622Y-63800871D01*
X85495661Y-63845934D01*
X85387000Y-63954595D01*
X85324688Y-63988621D01*
X85297905Y-63991500D01*
X84912928Y-63991500D01*
X84909682Y-63991837D01*
X84909678Y-63991837D01*
X84815765Y-64001581D01*
X84815761Y-64001582D01*
X84808907Y-64002293D01*
X84802371Y-64004474D01*
X84802369Y-64004474D01*
X84716423Y-64033148D01*
X84643893Y-64057346D01*
X84637661Y-64061202D01*
X84637662Y-64061202D01*
X84503490Y-64144230D01*
X84495969Y-64148884D01*
X84489077Y-64155788D01*
X84487613Y-64156589D01*
X84485062Y-64158611D01*
X84484716Y-64158174D01*
X84426796Y-64189866D01*
X84355976Y-64184863D01*
X84310890Y-64155944D01*
X84308184Y-64153243D01*
X84303003Y-64148071D01*
X84282509Y-64135438D01*
X84161150Y-64060631D01*
X84161148Y-64060630D01*
X84154920Y-64056791D01*
X83989809Y-64002026D01*
X83982973Y-64001326D01*
X83982970Y-64001325D01*
X83931474Y-63996049D01*
X83887072Y-63991500D01*
X83187928Y-63991500D01*
X83184682Y-63991837D01*
X83184678Y-63991837D01*
X83090765Y-64001581D01*
X83090761Y-64001582D01*
X83083907Y-64002293D01*
X83077371Y-64004474D01*
X83077369Y-64004474D01*
X82991423Y-64033148D01*
X82918893Y-64057346D01*
X82770969Y-64148884D01*
X82765796Y-64154066D01*
X82653242Y-64266816D01*
X82653238Y-64266821D01*
X82648071Y-64271997D01*
X82637253Y-64289547D01*
X82632894Y-64296618D01*
X82580121Y-64344110D01*
X82525635Y-64356500D01*
X82122643Y-64356500D01*
X82054522Y-64336498D01*
X82008029Y-64282842D01*
X81997925Y-64212568D01*
X82014189Y-64166361D01*
X82029648Y-64140221D01*
X82035893Y-64125790D01*
X82074939Y-63991395D01*
X82074899Y-63977294D01*
X82067630Y-63974000D01*
X79138122Y-63974000D01*
X79124591Y-63977973D01*
X79123456Y-63985871D01*
X79164107Y-64125790D01*
X79170352Y-64140221D01*
X79185811Y-64166361D01*
X79203270Y-64235177D01*
X79180753Y-64302509D01*
X79125409Y-64346978D01*
X79077357Y-64356500D01*
X78875802Y-64356500D01*
X78807681Y-64336498D01*
X78761188Y-64282842D01*
X78755969Y-64269436D01*
X78755581Y-64268240D01*
X78734527Y-64203444D01*
X78719174Y-64176851D01*
X78659397Y-64073316D01*
X78639040Y-64038056D01*
X78606599Y-64002026D01*
X78515675Y-63901045D01*
X78515674Y-63901044D01*
X78511253Y-63896134D01*
X78403494Y-63817842D01*
X78380791Y-63801347D01*
X78337437Y-63745124D01*
X78331362Y-63674388D01*
X78364494Y-63611596D01*
X78403603Y-63584304D01*
X78550722Y-63518803D01*
X78550724Y-63518802D01*
X78556752Y-63516118D01*
X78563223Y-63511417D01*
X78689671Y-63419546D01*
X78711253Y-63403866D01*
X78715668Y-63398963D01*
X78720580Y-63394540D01*
X78721705Y-63395789D01*
X78775014Y-63362949D01*
X78808200Y-63358500D01*
X78999163Y-63358500D01*
X79067284Y-63378502D01*
X79113777Y-63432158D01*
X79118682Y-63454552D01*
X79123479Y-63461970D01*
X79132371Y-63466000D01*
X82061878Y-63466000D01*
X82075409Y-63462027D01*
X82076544Y-63454128D01*
X82073792Y-63444655D01*
X82073993Y-63373659D01*
X82112546Y-63314042D01*
X82177210Y-63284732D01*
X82194788Y-63283500D01*
X82435036Y-63283500D01*
X82503157Y-63303502D01*
X82542179Y-63343196D01*
X82548884Y-63354031D01*
X82554066Y-63359204D01*
X82666816Y-63471758D01*
X82666821Y-63471762D01*
X82671997Y-63476929D01*
X82678227Y-63480769D01*
X82678228Y-63480770D01*
X82806281Y-63559703D01*
X82820080Y-63568209D01*
X82985191Y-63622974D01*
X82992027Y-63623674D01*
X82992030Y-63623675D01*
X83032528Y-63627824D01*
X83087928Y-63633500D01*
X83787072Y-63633500D01*
X83790318Y-63633163D01*
X83790322Y-63633163D01*
X83884235Y-63623419D01*
X83884239Y-63623418D01*
X83891093Y-63622707D01*
X83897629Y-63620526D01*
X83897631Y-63620526D01*
X84046264Y-63570938D01*
X84056107Y-63567654D01*
X84204031Y-63476116D01*
X84211274Y-63468861D01*
X84213038Y-63467895D01*
X84214941Y-63466387D01*
X84215199Y-63466713D01*
X84273554Y-63434781D01*
X84344375Y-63439782D01*
X84389470Y-63468708D01*
X84392131Y-63471364D01*
X84403540Y-63480375D01*
X84539063Y-63563912D01*
X84552241Y-63570056D01*
X84703766Y-63620315D01*
X84717132Y-63623181D01*
X84809770Y-63632672D01*
X84816185Y-63633000D01*
X84890385Y-63633000D01*
X84905624Y-63628525D01*
X84906829Y-63627135D01*
X84908500Y-63619452D01*
X84908500Y-62564020D01*
X84928502Y-62495899D01*
X84982158Y-62449406D01*
X85034500Y-62438020D01*
X85866713Y-62438020D01*
X85877896Y-62438547D01*
X85885389Y-62440222D01*
X85893315Y-62439973D01*
X85893316Y-62439973D01*
X85953466Y-62438082D01*
X85957425Y-62438020D01*
X85985336Y-62438020D01*
X85989271Y-62437523D01*
X85989336Y-62437515D01*
X86001173Y-62436582D01*
X86033431Y-62435568D01*
X86037450Y-62435442D01*
X86045369Y-62435193D01*
X86064823Y-62429541D01*
X86084180Y-62425533D01*
X86096410Y-62423988D01*
X86096411Y-62423988D01*
X86104277Y-62422994D01*
X86145396Y-62406714D01*
X86156607Y-62402875D01*
X86163064Y-62400999D01*
X86182066Y-62398296D01*
X86214783Y-62388689D01*
X86239122Y-62371427D01*
X86238781Y-62370807D01*
X86244183Y-62367837D01*
X86244937Y-62367303D01*
X86253097Y-62364072D01*
X86288867Y-62338084D01*
X86298785Y-62331569D01*
X86308121Y-62326048D01*
X86372262Y-62308500D01*
X86445487Y-62308500D01*
X86451939Y-62307128D01*
X86451944Y-62307128D01*
X86549609Y-62286368D01*
X86632288Y-62268794D01*
X86639253Y-62265693D01*
X86639842Y-62265614D01*
X86644600Y-62264068D01*
X86644883Y-62264938D01*
X86709620Y-62256260D01*
X86773917Y-62286368D01*
G37*
%TD.AperFunction*%
%TA.AperFunction,Conductor*%
G36*
X77197645Y-62954433D02*
G01*
X77238557Y-63013716D01*
X77265473Y-63096556D01*
X77268776Y-63102278D01*
X77268777Y-63102279D01*
X77274702Y-63112541D01*
X77360960Y-63261944D01*
X77365378Y-63266851D01*
X77365379Y-63266852D01*
X77464266Y-63376677D01*
X77488747Y-63403866D01*
X77538181Y-63439782D01*
X77619209Y-63498653D01*
X77662563Y-63554876D01*
X77668638Y-63625612D01*
X77635506Y-63688404D01*
X77596397Y-63715696D01*
X77449278Y-63781197D01*
X77449276Y-63781198D01*
X77443248Y-63783882D01*
X77437907Y-63787762D01*
X77437906Y-63787763D01*
X77396506Y-63817842D01*
X77288747Y-63896134D01*
X77284326Y-63901044D01*
X77284325Y-63901045D01*
X77251048Y-63938003D01*
X77190602Y-63975243D01*
X77138806Y-63974256D01*
X77138759Y-63974924D01*
X77125665Y-63974006D01*
X77125341Y-63974000D01*
X74188122Y-63974000D01*
X74174591Y-63977973D01*
X74171961Y-63996265D01*
X74142468Y-64060846D01*
X74082742Y-64099229D01*
X74011745Y-64099229D01*
X73958148Y-64067428D01*
X73895195Y-64004474D01*
X73573943Y-63683222D01*
X73566409Y-63674943D01*
X73562296Y-63668462D01*
X73512644Y-63621836D01*
X73509803Y-63619082D01*
X73490066Y-63599345D01*
X73486869Y-63596865D01*
X73477847Y-63589160D01*
X73455537Y-63568209D01*
X73445617Y-63558894D01*
X73447594Y-63556789D01*
X73412601Y-63511417D01*
X73406521Y-63440681D01*
X73440840Y-63376677D01*
X73484258Y-63333184D01*
X73484262Y-63333179D01*
X73489429Y-63328003D01*
X73495357Y-63318386D01*
X73497386Y-63316559D01*
X73497807Y-63316027D01*
X73497898Y-63316099D01*
X73548128Y-63270892D01*
X73602618Y-63258500D01*
X74062475Y-63258500D01*
X74130596Y-63278502D01*
X74177089Y-63332158D01*
X74187193Y-63402432D01*
X74183472Y-63419653D01*
X74175061Y-63448604D01*
X74175101Y-63462706D01*
X74182370Y-63466000D01*
X77111878Y-63466000D01*
X77125409Y-63462027D01*
X77126544Y-63454129D01*
X77085893Y-63314210D01*
X77079648Y-63299779D01*
X77003089Y-63170323D01*
X76997129Y-63162640D01*
X76971180Y-63096556D01*
X76985078Y-63026933D01*
X76995421Y-63010839D01*
X76999453Y-63006807D01*
X77010272Y-62988513D01*
X77062164Y-62940062D01*
X77132015Y-62927357D01*
X77197645Y-62954433D01*
G37*
%TD.AperFunction*%
%TA.AperFunction,Conductor*%
G36*
X71581350Y-60540138D02*
G01*
X71626437Y-60569059D01*
X71729312Y-60671754D01*
X71729317Y-60671758D01*
X71734497Y-60676929D01*
X71740727Y-60680769D01*
X71740728Y-60680770D01*
X71872019Y-60761699D01*
X71882580Y-60768209D01*
X72047691Y-60822974D01*
X72054527Y-60823674D01*
X72054530Y-60823675D01*
X72106026Y-60828951D01*
X72150428Y-60833500D01*
X72485406Y-60833500D01*
X72553527Y-60853502D01*
X72574501Y-60870405D01*
X72630863Y-60926767D01*
X72638407Y-60935057D01*
X72642520Y-60941538D01*
X72648297Y-60946963D01*
X72692187Y-60988178D01*
X72695029Y-60990933D01*
X72714750Y-61010654D01*
X72717945Y-61013132D01*
X72726967Y-61020838D01*
X72759199Y-61051106D01*
X72766148Y-61054926D01*
X72776952Y-61060866D01*
X72793476Y-61071719D01*
X72809479Y-61084133D01*
X72850063Y-61101696D01*
X72860693Y-61106903D01*
X72899460Y-61128215D01*
X72907137Y-61130186D01*
X72907142Y-61130188D01*
X72919078Y-61133252D01*
X72937786Y-61139657D01*
X72956375Y-61147701D01*
X72964200Y-61148940D01*
X72964202Y-61148941D01*
X73000039Y-61154617D01*
X73011660Y-61157024D01*
X73046809Y-61166048D01*
X73054490Y-61168020D01*
X73074751Y-61168020D01*
X73094460Y-61169571D01*
X73114463Y-61172739D01*
X73122355Y-61171993D01*
X73127582Y-61171499D01*
X73158474Y-61168579D01*
X73170331Y-61168020D01*
X74041001Y-61168020D01*
X74109122Y-61188022D01*
X74155615Y-61241678D01*
X74167001Y-61294020D01*
X74167001Y-61393983D01*
X74167195Y-61398920D01*
X74169430Y-61427336D01*
X74171730Y-61439931D01*
X74214107Y-61585790D01*
X74220352Y-61600221D01*
X74296911Y-61729677D01*
X74302871Y-61737360D01*
X74328820Y-61803444D01*
X74314922Y-61873067D01*
X74304580Y-61889160D01*
X74300547Y-61893193D01*
X74296511Y-61900017D01*
X74296509Y-61900020D01*
X74278992Y-61929640D01*
X74227099Y-61978092D01*
X74170539Y-61991500D01*
X73602464Y-61991500D01*
X73534343Y-61971498D01*
X73495321Y-61931804D01*
X73488616Y-61920969D01*
X73483434Y-61915796D01*
X73370684Y-61803242D01*
X73370679Y-61803238D01*
X73365503Y-61798071D01*
X73359272Y-61794230D01*
X73223650Y-61710631D01*
X73223648Y-61710630D01*
X73217420Y-61706791D01*
X73052309Y-61652026D01*
X73045473Y-61651326D01*
X73045470Y-61651325D01*
X72993974Y-61646049D01*
X72949572Y-61641500D01*
X72250428Y-61641500D01*
X72247182Y-61641837D01*
X72247178Y-61641837D01*
X72153265Y-61651581D01*
X72153261Y-61651582D01*
X72146407Y-61652293D01*
X72139871Y-61654474D01*
X72139869Y-61654474D01*
X72007105Y-61698768D01*
X71981393Y-61707346D01*
X71833469Y-61798884D01*
X71828297Y-61804065D01*
X71826227Y-61806139D01*
X71824462Y-61807105D01*
X71822559Y-61808613D01*
X71822301Y-61808287D01*
X71763946Y-61840219D01*
X71693125Y-61835218D01*
X71648030Y-61806292D01*
X71645369Y-61803636D01*
X71633960Y-61794625D01*
X71498437Y-61711088D01*
X71485259Y-61704944D01*
X71333734Y-61654685D01*
X71320368Y-61651819D01*
X71227730Y-61642328D01*
X71221315Y-61642000D01*
X71147115Y-61642000D01*
X71131876Y-61646475D01*
X71130671Y-61647865D01*
X71129000Y-61655548D01*
X71129000Y-63559703D01*
X71108998Y-63627824D01*
X71100085Y-63640017D01*
X71096728Y-63644075D01*
X71088739Y-63652856D01*
X70975894Y-63765702D01*
X70887001Y-63854595D01*
X70824689Y-63888620D01*
X70797905Y-63891500D01*
X70772480Y-63891500D01*
X70704359Y-63871498D01*
X70657866Y-63817842D01*
X70646480Y-63765500D01*
X70646480Y-60959500D01*
X70666482Y-60891379D01*
X70720138Y-60844886D01*
X70772480Y-60833500D01*
X70924572Y-60833500D01*
X70927818Y-60833163D01*
X70927822Y-60833163D01*
X71021735Y-60823419D01*
X71021739Y-60823418D01*
X71028593Y-60822707D01*
X71035129Y-60820526D01*
X71035131Y-60820526D01*
X71183578Y-60771000D01*
X71193607Y-60767654D01*
X71341531Y-60676116D01*
X71346704Y-60670934D01*
X71448247Y-60569214D01*
X71510530Y-60535135D01*
X71581350Y-60540138D01*
G37*
%TD.AperFunction*%
%TD*%
M02*
